<?xml version="1.0" encoding="UTF-8"?>
<svg id="Layer_2" data-name="Layer 2" xmlns="http://www.w3.org/2000/svg" viewBox="0 0 20.21 32.77">
  <defs>
    <style>
      .cls-1 {
        fill: #9bd6ce;
      }

      .cls-1, .cls-2, .cls-3, .cls-4 {
        stroke: #2b3088;
        stroke-miterlimit: 10;
        stroke-width: .28px;
      }

      .cls-2 {
        fill: #f8a07b;
      }

      .cls-3 {
        fill: #7dc242;
      }

      .cls-4 {
        fill: #93c949;
      }
    </style>
  </defs>
  <g id="Layer_1-2" data-name="Layer 1">
    <g>
      <path class="cls-4" d="M6.01,18.98S-1.93,14.92.66,11.62c2.06-2.61,6.5,2.14,5.35,7.36Z"/>
      <path class="cls-3" d="M8.08,22.7s3.46-7.05,6.52-4.84c3.33,2.4-7.41,9.04-6.52,4.84Z"/>
      <path class="cls-1" d="M6.06,23.05s-1.04-3.03-2.97-2.93c-1.93.09-1.84,2.6.33,3.68,2.27,1.13,3.06.8,2.64-.75Z"/>
      <path class="cls-2" d="M9.52.89c.9-1.26,2.7-.76,3.62.31.86.92,1.07,2.28.89,3.42-.04.29.08.28.27.15,1.12-.9,3.88-2.22,5.32-.58,1.21,1.66-1.41,3.11-2.64,3.68-.78.39-.98.55-.49.93,1.03.73,2.81,1.93,3.37,3.6.68,1.65-.29,3.98-2.09,4.28-.69.03-1.22-.78-2.12-1.99-.62-.8-1.84-2.64-2.39-3.16-.09-.03.01.26.18.78.24.87.79,2.48.11,3.29-.2.23-.51.35-.81.3-1.25-.18-2.04-2.31-2.22-3.48-.08-.29-.13-.52-.41-.6-2.25-.14-4.61-1.3-6.15-3.07-.98-1.05-1.61-2.98-1.06-4.14.46-1.2,2.18-1.71,3.74-.21,3.12,3,2.8.91,2.63.06-.26-1.3-.33-2.69.27-3.56Z"/>
      <line class="cls-1" x1="10.08" y1="11.81" x2="4.61" y2="32.73"/>
      <rect class="cls-3" x="11.04" y="24.44" width="2.87" height="2.87" rx="1.43" ry="1.43" transform="translate(37.28 40.37) rotate(146.05)"/>
    </g>
  </g>
</svg>