<?xml version="1.0" encoding="UTF-8"?>
<svg id="Layer_2" data-name="Layer 2" xmlns="http://www.w3.org/2000/svg" viewBox="0 0 8.97 15.1">
  <defs>
    <style>
      .cls-1 {
        fill: #93a6d5;
      }

      .cls-1, .cls-2, .cls-3 {
        stroke: #2b3088;
        stroke-miterlimit: 10;
        stroke-width: .28px;
      }

      .cls-2 {
        fill: #8ec73f;
      }

      .cls-3 {
        fill: #d26b3e;
      }
    </style>
  </defs>
  <g id="Layer_1-2" data-name="Layer 1">
    <g>
      <rect class="cls-3" x="-.29" y="9.52" width="9.13" height="2.15" rx="1.07" ry="1.07" transform="translate(-4.3 18.15) rotate(-109.43)"/>
      <path class="cls-2" d="M3.23,6.88c.48-.16,1.65-.96.68-2.92-.39-.8-1.5-1.88-1.86-2.47s-.17-1.27-.17-1.27c-.29.1-.86.99-1.15,1.49-.39.68-1.1,3.53.73,4.92.71.54,1.29.41,1.77.25Z"/>
      <path class="cls-1" d="M1.85,7.91c1.61,1.32,4.8.83,4.13-1.21-1.23-3.77,4.25-3.37,2.49-1.38-2.53,2.84-.56,3.35-.19,4.98.46,2.06-.78,3.46-3.1,3.81-2.08.31-3.78-.8-4.61-2.53-1.07-2.24.07-4.66,1.28-3.66Z"/>
    </g>
  </g>
</svg>