<?xml version="1.0" encoding="UTF-8"?>
<svg id="Layer_2" data-name="Layer 2" xmlns="http://www.w3.org/2000/svg" viewBox="0 0 165.7 64.56">
  <defs>
    <style>
      .cls-1 {
        fill: #39b54a;
      }

      .cls-1, .cls-2, .cls-3, .cls-4, .cls-5, .cls-6, .cls-7, .cls-8, .cls-9 {
        stroke-width: 0px;
      }

      .cls-2 {
        fill: #f7941d;
      }

      .cls-3 {
        fill: #429d46;
      }

      .cls-4 {
        fill: #2b3088;
      }

      .cls-5 {
        fill: #93a6d5;
      }

      .cls-6 {
        fill: #f16035;
      }

      .cls-7 {
        fill: #d63127;
      }

      .cls-8 {
        fill: #f68c34;
      }

      .cls-9 {
        fill: #fff;
      }
    </style>
  </defs>
  <g id="Layer_1-2" data-name="Layer 1">
    <g>
      <path class="cls-4" d="M73.11,60.34c-.22,0-.44-.08-.61-.25-.34-.34-.34-.89,0-1.23.05-.05,5.24-5.35,5.2-9.61-.01-1.15-.4-2.08-1.2-2.86-1.89-1.84-5.74-.78-9.81.35-4.6,1.27-9.81,2.72-13.56.19-2.55-1.72-4.07-5-4.64-10.02-2.44-21.43,5.74-31.38,6.09-31.79.31-.37.85-.41,1.22-.1.37.31.41.86.1,1.22-.08.1-8.04,9.85-5.69,30.48.51,4.49,1.78,7.36,3.89,8.78,3.09,2.08,7.68.81,12.13-.42,4.57-1.27,8.88-2.46,11.49.08,1.13,1.1,1.71,2.48,1.73,4.09.05,4.98-5.47,10.6-5.7,10.84-.17.17-.39.26-.62.26Z"/>
      <path class="cls-4" d="M44.62,38.43c-.35,0-.66-.08-.95-.27-.92-.6-.91-1.88-.82-2.79,2-20.69,10.86-29.22,11.23-29.57.35-.33.9-.31,1.23.04.33.35.31.9-.04,1.23-.09.08-8.76,8.49-10.7,28.47-.09.96.07,1.19.07,1.19.36.06,1.85-.78,2.85-1.34,2.96-1.66,7.44-4.17,10.33-.47.3.38.23.92-.15,1.22-.38.3-.92.23-1.22-.15-1.83-2.34-4.63-1.03-8.11.92-1.47.83-2.72,1.52-3.72,1.52Z"/>
      <path class="cls-4" d="M55.11,29.33c-1.21,0-1.99-.56-2.46-1.08-3.75-4.17.67-20.24,1.19-22.06.13-.46.6-.73,1.07-.6.46.13.73.61.6,1.07-1.33,4.68-4.2,17.48-1.56,20.42.25.27.68.62,1.62.46,1.65-.28,3.04-2.53,4.38-4.7,1.77-2.87,3.76-6.11,7.04-5.51.98.18,2.09.49,3.26.82,5.03,1.41,10.73,3.01,13.54-2.56.22-.43.74-.6,1.17-.38.43.22.6.74.38,1.17-3.45,6.84-10.45,4.88-15.55,3.45-1.14-.32-2.21-.62-3.11-.79-2.12-.39-3.63,2.09-5.25,4.71-1.54,2.5-3.13,5.08-5.56,5.5-.26.05-.51.07-.74.07Z"/>
      <path class="cls-4" d="M79.26,40.55c-17.73,0-23.19-15.68-26.16-31.16-.09-.47.22-.93.69-1.02.47-.09.93.22,1.02.69,3.08,16.01,8.36,30.67,26.11,29.7,8.05-.43,11.53-6.32,15.2-12.56,1.09-1.86,2.23-3.78,3.49-5.56,5.87-8.48,12.69-9.91,20.85-4.37,13.45,9.14,20.35,2.81,27.66-3.89l.64.59.53.69c-7.48,6.86-15.22,13.95-29.81,4.05-7.3-4.96-13.17-3.71-18.45,3.93-1.23,1.73-2.34,3.62-3.42,5.45-3.75,6.36-7.62,12.93-16.6,13.41-.6.03-1.18.05-1.75.05Z"/>
      <g>
        <path class="cls-4" d="M127.36,45.28c-2.06,0-4.42-.63-7-2.39-3.05-2.09-5.66-4.35-8.19-6.53-5.76-4.98-10.73-9.27-18.41-9.27-2.65,0-7.08,2.07-11.36,4.07-7.31,3.42-14.86,6.95-18.38,3.19-.33-.35-.31-.9.04-1.23s.9-.31,1.23.04c2.66,2.84,9.95-.57,16.38-3.58,4.66-2.18,9.06-4.24,12.1-4.24,8.33,0,13.78,4.71,19.55,9.7,2.49,2.15,5.06,4.38,8.03,6.41,7.55,5.17,12.73-.79,12.95-1.05.31-.37.86-.41,1.22-.1.37.31.41.86.1,1.22-.04.05-3.25,3.75-8.26,3.75Z"/>
        <g>
          <path class="cls-5" d="M135.38,42.51c-.22-.19-.25-1.29-.42-1.54-1.7-2.61.62-2.65,2.02-3.8.87-.71.5-2.92,1.3-3.19.49-.17,1.11.78.72,1.79-.65,1.68-2.67,3.81-2.18,3.31,2.25-2.28,7.71-7.83,8.81-5.86.54.96-.84,1.23-2.03,1.85-.97.5-1.75,1.45-1.75,1.45,0,0,1.86,1.74.36,4.01-.87,1.31-3.43,2.17-4.77,2.55-.56.16-1.15.06-1.64-.25-.15-.1-.31-.21-.43-.32Z"/>
          <path class="cls-4" d="M136.9,43.28c-.41,0-.82-.12-1.16-.35-.19-.12-.33-.23-.45-.33h0c-.14-.12-.2-.43-.29-.92-.04-.26-.09-.55-.15-.64-.53-.81-.71-1.42-.58-1.92.16-.63.81-.97,1.49-1.33.39-.21.8-.42,1.14-.7.4-.33.52-1.02.63-1.68.12-.7.24-1.37.71-1.53.2-.07.43,0,.62.2.32.33.53,1.02.24,1.75-.2.53-.56,1.15-1.05,1.85,2.18-2.15,5.26-4.98,6.84-4.98.06,0,.11,0,.16,0,.3.04.53.2.68.47.13.24.17.46.1.67-.15.43-.73.69-1.4.98-.26.11-.53.23-.79.37-.77.4-1.43,1.1-1.64,1.34.35.39,1.65,2.04.3,4.08-.88,1.33-3.41,2.2-4.84,2.6-.19.05-.38.08-.57.08ZM138.4,34.09s-.05,0-.08.01c-.33.11-.44.71-.54,1.34-.12.68-.25,1.45-.72,1.83-.37.3-.78.52-1.18.73-.66.35-1.23.65-1.36,1.18-.11.43.07.99.55,1.73.09.13.13.41.19.73.05.28.12.7.21.78h0c.11.09.24.19.42.31.45.3,1.01.38,1.54.24,1.4-.39,3.86-1.23,4.7-2.5,1.43-2.15-.27-3.78-.34-3.85l-.08-.08.07-.09s.81-.98,1.79-1.48c.27-.14.54-.26.8-.37.59-.26,1.15-.51,1.26-.84.05-.13.02-.29-.08-.47-.11-.2-.28-.31-.5-.35-.04,0-.09,0-.14,0-1.82,0-6.1,4.33-7.95,6.21l-.03.03c-.08.09-.16.16-.25.08-.09-.08-.04-.14.09-.3,1.09-1.3,1.81-2.39,2.13-3.22.23-.6.08-1.21-.19-1.49-.1-.1-.2-.15-.29-.15Z"/>
        </g>
      </g>
      <g>
        <path class="cls-5" d="M82.92,17.02c-.02-2.56,1.88-2.59,2.15-6.42.06-.82-1.77-5.09.2-5.01s2.96,4.04.64,6.53c-.9.97,6.14-.79,8.41-1.56,3.12-1.06,5.23,1.47-2.52,3.12,0,0,1.1,4.37-1.68,4.77-2.45.35-7.16,2.78-7.2-1.43Z"/>
        <path class="cls-4" d="M85.17,19.59c-.6,0-1.14-.12-1.55-.43-.55-.42-.82-1.11-.83-2.14-.01-1.23.4-1.88.88-2.64.53-.83,1.12-1.77,1.27-3.79.01-.2-.11-.68-.25-1.23-.33-1.29-.75-2.9-.2-3.58.17-.21.41-.31.72-.31.02,0,.04,0,.06,0,.75.03,1.4.58,1.78,1.5.57,1.37.48,3.59-1.05,5.24-.02.02-.03.04-.04.05.51.28,5.94-1,8.32-1.81,1.13-.39,2.27-.34,2.75.12.2.19.27.43.2.69-.26.93-2.18,1.84-5.28,2.52.12.54.51,2.64-.33,3.89-.34.5-.84.81-1.48.9-.52.07-1.14.24-1.8.42-1.05.29-2.19.6-3.16.6ZM83.04,17.02c0,.94.25,1.57.73,1.94.99.75,2.85.24,4.49-.2.67-.18,1.3-.35,1.83-.43.57-.08,1.01-.35,1.31-.79.89-1.32.27-3.8.27-3.82l-.03-.12.12-.03c3.57-.76,5.04-1.72,5.22-2.37.05-.17,0-.32-.13-.44-.36-.34-1.33-.47-2.51-.07-1.3.44-8.18,2.36-8.62,1.7-.04-.07-.07-.18.08-.34,1.45-1.57,1.54-3.68,1-4.98-.34-.83-.91-1.32-1.56-1.35-.25-.01-.45.06-.58.22-.47.59-.06,2.19.25,3.37.15.6.28,1.07.26,1.31-.15,2.08-.76,3.05-1.3,3.91-.46.72-.85,1.35-.84,2.5h0Z"/>
      </g>
      <g>
        <path class="cls-5" d="M148.26,11.51c1.08-2.32,2.81-1.53,4.7-4.87.41-.72.59-5.36,2.34-4.44s.93,4.92-2.23,6.17c-1.23.49,5.88,1.94,8.26,2.21,3.27.38,4.09,3.58-3.62,1.73,0,0-.88,4.42-3.57,3.58-2.36-.74-7.66-.57-5.88-4.39Z"/>
        <path class="cls-4" d="M154.8,16.12c-.22,0-.46-.04-.7-.11-.5-.16-1.14-.27-1.81-.39-1.73-.31-3.69-.67-4.32-1.88-.32-.61-.26-1.36.17-2.29h0c.52-1.12,1.17-1.53,1.93-2,.83-.52,1.78-1.12,2.77-2.87.1-.18.19-.66.3-1.22.26-1.31.57-2.94,1.36-3.32.25-.12.54-.1.84.05.66.35,1.02,1.12.96,2.12-.08,1.48-1.12,3.45-3.2,4.27-.03.01-.04.02-.05.03.34.48,5.79,1.66,8.28,1.95,1.19.14,2.19.67,2.43,1.3.1.26.06.51-.12.71-.63.72-2.76.72-5.85,0-.12.53-.68,2.6-1.97,3.37-.32.19-.67.29-1.03.29ZM148.37,11.56h0c-.4.85-.45,1.53-.17,2.07.57,1.1,2.47,1.44,4.14,1.75.68.12,1.32.24,1.84.4.55.17,1.07.12,1.53-.15,1.37-.81,1.88-3.31,1.89-3.33l.03-.12.12.03c3.55.85,5.29.61,5.73.11.12-.13.14-.29.07-.46-.18-.46-1-1-2.23-1.14-1.36-.16-8.4-1.39-8.51-2.18-.01-.08.02-.19.22-.27,1.99-.79,2.97-2.66,3.05-4.06.05-.9-.25-1.59-.83-1.89-.23-.12-.43-.14-.62-.05-.68.32-1,1.95-1.23,3.14-.12.61-.21,1.09-.33,1.3-1.03,1.81-2,2.42-2.86,2.96-.72.45-1.35.85-1.84,1.9Z"/>
      </g>
      <path class="cls-4" d="M51.95,44.59c-.09,0-.19-.02-.28-.05-.45-.15-.7-.65-.54-1.1.11-.32,2.67-7.73,7.76-8,1.29-.06,2.37.35,3.16,1.2,1.92,2.1,1.38,6.22,1.35,6.4-.07.47-.5.8-.98.74-.47-.07-.81-.5-.74-.98.13-.97.23-3.75-.91-4.99-.43-.47-1.01-.67-1.78-.64-3.91.21-6.18,6.75-6.2,6.82-.12.36-.46.59-.82.59Z"/>
      <g>
        <path class="cls-5" d="M55.33,33.53c1.3-1.32,8.81,2.81,7.36,5.5-.35.65-1.46.1-1.46.1,0,0,.23,1.09-1.01,1.89-.9.58-3.3.44-3.91-.59-3.6-6.12-1-6.89-1-6.89Z"/>
        <path class="cls-4" d="M58.7,41.48c-.36,0-.72-.04-1.07-.12-.48-.11-1.11-.36-1.42-.87-2.08-3.53-2.1-5.32-1.76-6.19.25-.62.68-.82.8-.87.83-.78,3.5.24,5.42,1.64,1.95,1.43,2.72,2.9,2.12,4.02-.31.57-1.06.37-1.42.23,0,.38-.11,1.17-1.08,1.8-.37.24-.96.36-1.59.36ZM55.36,33.65s-.44.15-.68.74c-.32.83-.28,2.53,1.74,5.97.2.34.65.61,1.26.75.9.22,1.96.12,2.47-.21,1.15-.74.95-1.75.95-1.76l-.05-.25.23.11s1,.49,1.29-.04c.53-.99-.24-2.37-2.05-3.7-2.01-1.48-4.5-2.28-5.12-1.65l-.05.03Z"/>
      </g>
      <path class="cls-4" d="M23.49,62.16c-10,0-17.73-5.32-17.83-5.39-.39-.27-.49-.82-.21-1.21.28-.39.82-.49,1.21-.21.14.1,14.21,9.76,28.53,2.18,5.93-3.13,9.96-7.55,12-13.13,1.52-4.18,1.3-7.48,1.29-7.52-.04-.48.32-.9.8-.93.48-.05.89.32.93.8.01.14.95,14.3-14.21,22.32-4.31,2.28-8.58,3.1-12.51,3.1Z"/>
      <g>
        <path class="cls-5" d="M74.66,58.29c-.19-1.83-3.17-.01-3.93,1.84-.6,1.47,1.34,4.1,7.31,4.1s6.42-2.2,4.62-2.61c-.9-.21-3.56-.06-5.56-.29-2.74-.31-2.4-2.63-2.44-3.05Z"/>
        <path class="cls-4" d="M78.03,64.35c-4.94,0-6.64-1.73-7.13-2.47-.4-.6-.51-1.26-.29-1.8.57-1.4,2.42-2.82,3.45-2.67.41.06.67.37.72.86h0s0,.12,0,.21c0,.67,0,2.46,2.32,2.72,1,.11,2.17.13,3.2.15s1.92.03,2.38.14c.67.15,1.07.56,1.02,1.03-.1.84-1.64,1.82-5.67,1.82ZM73.9,57.65c-.88,0-2.51,1.2-3.06,2.53-.19.46-.09,1.03.27,1.57.99,1.48,3.58,2.36,6.93,2.36,4.14,0,5.36-1.05,5.42-1.6.04-.34-.29-.64-.83-.76-.44-.1-1.31-.12-2.33-.13-1.03-.02-2.21-.04-3.22-.15-2.54-.29-2.54-2.31-2.54-2.97,0-.08,0-.15,0-.19-.04-.39-.21-.6-.51-.64-.04,0-.08,0-.12,0Z"/>
      </g>
      <g>
        <path class="cls-5" d="M7.39,56.97c1.81.32.88-3.04-.7-4.29-1.25-.98-4.31.17-5.94,5.91-1.64,5.74.35,6.77,1.24,5.16.45-.81,1.03-3.4,1.8-5.27,1.05-2.55,3.19-1.58,3.6-1.51Z"/>
        <path class="cls-4" d="M1.11,64.56c-.09,0-.18-.02-.27-.05-.78-.32-1.3-2.07-.2-5.95,1.35-4.76,3.48-5.91,4.33-6.18.69-.22,1.35-.15,1.81.21,1.19.94,2.05,3.09,1.62,4.05-.17.38-.54.55-1.02.46h0s-.12-.03-.21-.05c-.71-.2-2.36-.67-3.26,1.49-.38.93-.72,2.05-1.02,3.03-.3.99-.56,1.84-.79,2.25-.26.48-.63.75-.99.75ZM5.72,52.49c-.22,0-.44.04-.68.11-1.69.55-3.25,2.8-4.17,6.02-1.14,3.99-.46,5.44.06,5.65.32.13.69-.1.96-.59.22-.39.47-1.23.77-2.21.3-.99.64-2.11,1.03-3.05.98-2.36,2.91-1.81,3.55-1.63.08.02.14.04.18.05h0c.38.07.63-.03.76-.32.35-.78-.36-2.82-1.55-3.75-.24-.19-.55-.29-.9-.29Z"/>
      </g>
      <g>
        <g>
          <path class="cls-4" d="M55.56.01s-2.83-.48-2.96,4.45,5.08,3.83,6.05,1.93S59.48-.15,55.56.01Z"/>
          <path class="cls-1" d="M61.33,4.07s-1.2,2.85-1.74,1.44-.48-2.04-.48-2.04l2.22.6Z"/>
          <path class="cls-9" d="M54.27,3.58l-.27-.21.13-.17c.27-.34.71-.52,1.15-.45l1.96.29-.05.34-1.96-.29c-.32-.05-.63.08-.83.33l-.13.17Z"/>
        </g>
        <path class="cls-1" d="M57.15,2.72s-.04.19-.08.46c-.13.81-.27,2.35.67,1.72,1.25-.84,1.57-1.39,1.57-1.39l-2.16-.79Z"/>
      </g>
      <g>
        <g>
          <rect class="cls-8" x="153.05" y="3.99" width="10.17" height="17.07" rx="5.09" ry="5.09" transform="translate(51.67 -105.07) rotate(43.32)"/>
          <path class="cls-4" d="M155.76,20.24c-1.28,0-2.57-.47-3.57-1.42h0c-2.09-1.97-2.19-5.28-.22-7.37l4.73-5.02c.95-1.01,2.24-1.59,3.64-1.63,1.39-.05,2.72.46,3.73,1.41,1.01.95,1.59,2.24,1.63,3.64.04,1.39-.46,2.72-1.41,3.73l-4.73,5.02c-1.02,1.08-2.41,1.63-3.79,1.63ZM152.36,18.65c1.99,1.88,5.14,1.78,7.02-.21l4.73-5.02c.91-.96,1.38-2.22,1.34-3.55-.04-1.33-.59-2.56-1.55-3.47-1.99-1.88-5.14-1.78-7.02.21l-4.73,5.02c-1.88,1.99-1.78,5.14.21,7.02h0Z"/>
        </g>
        <g>
          <path class="cls-6" d="M159.66,11.78c1.68.72,1.39,2.11,1.39,2.11-2.39-1.22-3.31,1.67-1.15,1.75,0,0-2.94,2.33-4.03-.04-.2-.44-.77-.32-1.14-1-.82-1.52,1.35-4.5,2.74-4.61.94-.08,1.46.73,1.61,1.17.1.28.31.51.58.63Z"/>
          <path class="cls-4" d="M157.43,16.78c-.15,0-.3-.02-.45-.05-.53-.13-.94-.49-1.22-1.08-.07-.16-.22-.23-.39-.32-.23-.12-.52-.27-.74-.67-.34-.63-.23-1.57.32-2.58.57-1.05,1.61-2.14,2.52-2.22.05,0,.09,0,.13,0,.91,0,1.43.77,1.6,1.25.09.25.28.45.51.56h0c1.75.75,1.47,2.23,1.46,2.25l-.03.16-.14-.07c-.74-.38-1.44-.38-1.87,0-.28.25-.39.62-.28.93.13.35.51.57,1.05.59h.34s-.26.22-.26.22c-.06.05-1.34,1.05-2.55,1.05ZM157.59,10.11s-.07,0-.11,0c-.71.06-1.71.95-2.32,2.09-.5.93-.62,1.78-.32,2.34.18.34.41.46.64.57.19.1.4.2.5.44.24.52.59.84,1.05.95.92.22,2.04-.43,2.54-.77-.48-.09-.82-.34-.95-.71-.15-.41-.01-.88.35-1.2.47-.42,1.2-.46,1.98-.11.02-.37-.09-1.27-1.34-1.81h0c-.3-.13-.53-.38-.65-.7-.15-.42-.6-1.09-1.37-1.09Z"/>
        </g>
        <g>
          <path class="cls-3" d="M159.66,11.78s1.67-3.45,2.97-2.19c1.21,1.17-3.81,3.71-2.97,2.19Z"/>
          <path class="cls-4" d="M159.83,12.38c-.11,0-.19-.02-.26-.06-.11-.08-.21-.24-.01-.59.06-.13,1.14-2.31,2.28-2.52.32-.06.62.04.88.3.19.19.44.6-.11,1.27-.59.73-2.08,1.6-2.78,1.6ZM162.01,9.44s-.09,0-.13.01c-1.03.18-2.1,2.36-2.11,2.39h0c-.09.16-.1.25-.07.27.27.17,1.96-.56,2.71-1.49.32-.4.36-.71.13-.94-.17-.16-.34-.24-.53-.24Z"/>
        </g>
      </g>
      <g>
        <path class="cls-7" d="M44.01,46.02c.1-1.43,1.29-2.76,2.71-2.56,11.94,1.66,21-2.87,21.63-.02s2.41,14.18-7.53,14.81-17.14-.85-17.14-4.87c0-2.35.18-5.31.33-7.36Z"/>
        <path class="cls-4" d="M56.58,58.66c-5.91,0-10.1-.93-12-2.71-.77-.72-1.16-1.59-1.16-2.56,0-2.35.18-5.31.33-7.38.06-.88.5-1.72,1.16-2.26.54-.44,1.19-.63,1.84-.54,6.17.86,11.52.06,15.43-.52,3.78-.56,6.06-.9,6.42.7.41,1.84,1.52,8.13-1.41,12.03-1.4,1.87-3.54,2.91-6.36,3.09-1.5.1-2.92.14-4.25.14ZM46.43,43.7c-.52,0-.93.23-1.2.45-.55.45-.92,1.16-.97,1.89h0c-.15,2.06-.33,5.01-.33,7.35,0,.83.34,1.56,1,2.19,2.18,2.05,7.97,2.93,15.87,2.43,2.66-.17,4.67-1.14,5.98-2.89,2.79-3.72,1.71-9.83,1.32-11.61-.25-1.13-2.48-.8-5.84-.3-3.94.59-9.33,1.39-15.57.52-.08-.01-.17-.02-.25-.02Z"/>
      </g>
      <g>
        <ellipse class="cls-2" cx="91.93" cy="6.44" rx="2.68" ry="1.91"/>
        <path class="cls-4" d="M91.93,8.47c-1.55,0-2.81-.91-2.81-2.04s1.26-2.04,2.81-2.04,2.81.91,2.81,2.04-1.26,2.04-2.81,2.04ZM91.93,4.65c-1.41,0-2.56.8-2.56,1.79s1.15,1.79,2.56,1.79,2.56-.8,2.56-1.79-1.15-1.79-2.56-1.79Z"/>
      </g>
    </g>
  </g>
</svg>