<?xml version="1.0" encoding="UTF-8"?>
<svg id="Layer_2" data-name="Layer 2" xmlns="http://www.w3.org/2000/svg" viewBox="0 0 21.27 16.27">
  <defs>
    <style>
      .cls-1 {
        fill: #f3e21b;
      }

      .cls-1, .cls-2 {
        stroke-width: 0px;
      }

      .cls-2 {
        fill: #2b3088;
      }
    </style>
  </defs>
  <g id="Layer_1-2" data-name="Layer 1">
    <g>
      <path class="cls-1" d="M4.19,3.66S7.83-.65,14.29.29c4.85.71,6.8,5.5-1.02,3.75,0,0,1.94,3.25-4.96,2.45,0,0,.55,1.91,4.03,2.44,1.8.27,3.79-.83,5.45-1.17,2.34-.47,3.46.32,3.3,1.45-.5,3.51-7.13,1.48-7.13,1.48,0,0,1.63,1.57,2.1,3.05.46,1.48-.24,2.88-2.24,2.17-4-1.41-3.16-6.55-3.16-6.55,0,0-4.21,4.25-7.91,1.11-1.84-1.56-1.86-3.76-1.59-5.72C1.53,1.97.22,1.92.22,1.92.22,1.92.76.36,2.39.61c.94.14,1.91,1.24,1.81,3.04Z"/>
      <path class="cls-2" d="M14.79,16.27c-.29,0-.63-.06-1.03-.2-1.69-.6-2.79-1.96-3.18-3.93-.2-.98-.17-1.87-.13-2.38-1.06.92-4.63,3.53-7.81.83-1.95-1.65-1.9-4-1.64-5.87.19-1.4-.06-2.06-.31-2.36-.22-.27-.47-.29-.48-.29h-.21s.07-.21.07-.21c0-.02.61-1.66,2.35-1.41.95.14,1.9,1.16,1.95,2.8.99-.97,4.48-3.92,9.96-3.12,2.31.34,3.91,1.56,4.29,2.59.17.45.1.87-.18,1.2-.65.75-2.38.87-4.88.35.13.35.26.94-.09,1.48-.58.9-2.23,1.22-4.89.94.28.51,1.2,1.7,3.79,2.09,1.16.18,2.41-.24,3.61-.65.62-.21,1.21-.41,1.78-.52,1.41-.29,2.5-.14,3.09.41.33.32.47.74.4,1.22-.1.71-.45,1.26-1.03,1.63-1.59,1.01-4.52.44-5.75.14.52.57,1.41,1.65,1.73,2.7.27.88.15,1.71-.33,2.17-.21.2-.55.4-1.08.4ZM10.89,8.9l-.08.49s-.77,5.03,3.06,6.38c.79.28,1.41.24,1.79-.13.39-.38.48-1.08.25-1.84-.45-1.43-2.04-2.97-2.06-2.98l-.48-.46.64.2s4.16,1.25,6.05.05c.5-.32.8-.79.88-1.4.05-.38-.05-.71-.31-.95-.5-.47-1.52-.59-2.81-.33-.55.11-1.13.31-1.75.51-1.24.42-2.53.85-3.76.66-3.53-.54-4.13-2.47-4.16-2.55l-.07-.23.24.03c3.35.38,4.5-.2,4.86-.77.41-.64-.05-1.44-.05-1.45l-.19-.32.36.08c3.56.8,4.6.14,4.88-.18.2-.23.24-.53.12-.87-.34-.92-1.87-2.06-4.04-2.38C7.95-.47,4.35,3.72,4.32,3.76l-.31.37.03-.48c.1-1.69-.79-2.74-1.67-2.88-1.19-.18-1.75.67-1.93,1.04.14.05.32.15.49.35.43.51.56,1.39.39,2.62-.25,1.79-.3,4.03,1.53,5.58,1.49,1.26,3.23,1.46,5.18.6,1.47-.65,2.51-1.69,2.52-1.7l.35-.35Z"/>
    </g>
  </g>
</svg>