<?xml version="1.0" encoding="UTF-8"?>
<svg id="Layer_2" data-name="Layer 2" xmlns="http://www.w3.org/2000/svg" viewBox="0 0 162.31 97.01">
  <defs>
    <style>
      .cls-1 {
        stroke-linejoin: round;
      }

      .cls-1, .cls-2 {
        stroke-linecap: round;
        stroke-width: .25px;
      }

      .cls-1, .cls-2, .cls-3, .cls-4, .cls-5 {
        stroke: #2b3088;
      }

      .cls-1, .cls-2, .cls-5 {
        fill: none;
      }

      .cls-2, .cls-3, .cls-4, .cls-5 {
        stroke-miterlimit: 10;
      }

      .cls-6 {
        fill: #e9a7cb;
      }

      .cls-6, .cls-7, .cls-8 {
        stroke-width: 0px;
      }

      .cls-7 {
        fill: #2b3088;
      }

      .cls-8 {
        fill: #93a6d5;
      }

      .cls-3 {
        fill: #f7941d;
      }

      .cls-3, .cls-4, .cls-5 {
        stroke-width: .22px;
      }

      .cls-4 {
        fill: #ef4136;
      }
    </style>
  </defs>
  <g id="Layer_1-2" data-name="Layer 1">
    <g>
      <path class="cls-7" d="M16.17,47.21c-1.59,0-2.62-.74-3.23-1.42-4.93-5.48.88-26.6,1.56-28.99.17-.6.79-.96,1.41-.78.61.17.96.8.78,1.41-1.75,6.16-5.52,22.98-2.06,26.84.32.36.89.82,2.12.61,2.17-.37,3.99-3.32,5.75-6.17,2.32-3.77,4.94-8.03,9.26-7.24,2.05.38,3.75,1.24,5.25,2,1.74.88,3.11,1.57,4.32,1.18,1.23-.4,2.5-1.95,3.9-4.71.28-.56.97-.79,1.53-.5.56.28.79.97.5,1.53-1.71,3.38-3.37,5.24-5.23,5.85-2.11.69-4.03-.28-6.06-1.31-1.43-.72-2.9-1.47-4.63-1.79-2.78-.51-4.78,2.75-6.9,6.2-2.02,3.28-4.12,6.67-7.31,7.22-.35.06-.67.09-.98.09Z"/>
      <path class="cls-8" d="M48.75,30.48c-1.4,1.14-3.53.53-4.05-1.2,0-.03-.02-.06-.02-.08-.72-2.52-4.98-3.26-7.01-3.38-3.68-.22-3.22-2.12-1.4-2.86s5.7-.21,6.36,1.94,2.41.99,4.22-.79c1.82-1.78,5.47-8.88,8.05-7.88,3.28,1.26-3.15,6.03-4.2,6.75-.13.09-.05.29.1.26,2.18-.35,8.48-1.07,7.98,2.53-.37,2.64-5.25,1.82-7.64,3.14-1.07.59-1.84,1.13-2.38,1.57Z"/>
      <path class="cls-7" d="M47.12,31.22c-.27,0-.54-.04-.8-.12-.87-.27-1.52-.91-1.78-1.78l-.02-.05c-.82-2.85-6.26-3.25-6.87-3.29-2.36-.14-2.84-.93-2.92-1.39-.11-.66.48-1.38,1.46-1.78,1.29-.53,3.42-.41,4.86.28.9.43,1.49,1.04,1.72,1.77.18.59.45.93.81,1.02.87.23,2.21-.96,3.14-1.88.52-.51,1.2-1.46,1.98-2.57,1.92-2.71,4.3-6.1,6.25-5.35.62.24.96.61,1.02,1.12.25,2.17-5.14,5.88-5.19,5.92,1.74-.32,5.99-.81,7.57.74.5.49.7,1.14.59,1.93-.25,1.76-2.35,2.08-4.38,2.4-1.21.19-2.47.38-3.35.86-.91.5-1.7,1.03-2.36,1.56-.5.4-1.11.62-1.73.62ZM38.14,22.79c-.68,0-1.32.1-1.82.31-.83.34-1.35.92-1.27,1.43.1.61,1.08,1.03,2.62,1.12.64.04,6.29.46,7.16,3.49l.02.08c.23.76.8,1.34,1.57,1.57.77.24,1.6.07,2.23-.44h0c.67-.55,1.48-1.08,2.4-1.59.93-.51,2.22-.71,3.46-.9,2-.31,3.89-.6,4.11-2.12.1-.69-.06-1.24-.49-1.66-1.47-1.44-5.59-.96-7.3-.69-.14.03-.28-.05-.33-.19-.05-.14,0-.29.11-.37,1.12-.76,5.25-3.92,5.05-5.61-.04-.38-.31-.66-.81-.85-1.72-.67-4.11,2.75-5.87,5.23-.79,1.12-1.47,2.08-2.02,2.62-1.59,1.56-2.66,2.15-3.45,1.96-.48-.12-.83-.54-1.04-1.24-.25-.81-.98-1.3-1.55-1.57-.8-.38-1.82-.58-2.77-.58Z"/>
      <g>
        <path class="cls-8" d="M43.9,38.45l4.46-13.98c.06-.2.24-.33.45-.33h19.65c.31,0,.54.3.45.6-1.21,4.17-4.66,16.25-5.26,18.34-.05.19-.22.32-.41.34l-23.85,2.04c-.12,0-.23-.02-.32-.09-4.55-3.44-8.89-6.15-11.31-7.59-.44-.26-.21-.94.3-.87,4.43.53,13.37,1.63,15.33,1.87.23.03.44-.11.51-.33Z"/>
        <path class="cls-7" d="M39.36,45.8c-.18,0-.35-.06-.49-.16-4.62-3.49-9.05-6.24-11.28-7.57-.34-.2-.48-.59-.35-.96.13-.37.47-.59.86-.54,3.69.44,10.51,1.28,13.82,1.68l1.52.19c.06,0,.12-.03.14-.09l4.46-13.98c.11-.34.42-.56.77-.56h19.65c.26,0,.5.12.65.32s.2.47.13.71c-1.21,4.17-4.66,16.25-5.26,18.34-.09.32-.37.55-.71.58l-23.85,2.04s-.04,0-.06,0ZM28,37.24c-.07,0-.11.05-.12.09-.02.05-.02.11.06.16,2.24,1.33,6.69,4.1,11.34,7.61.03.02.06.04.1.03l23.84-2.04c.06,0,.1-.04.12-.09.6-2.1,4.05-14.18,5.26-18.35.02-.06,0-.1-.02-.12-.02-.02-.05-.05-.11-.05h-19.65c-.06,0-.11.04-.13.09l-4.46,13.98c-.12.37-.48.62-.87.56l-1.52-.18c-3.31-.41-10.13-1.24-13.82-1.68,0,0-.02,0-.02,0Z"/>
      </g>
      <polygon class="cls-7" points="43.07 39.75 46.03 40.49 42.73 40.74 39.74 39.75 43.07 39.75"/>
      <polygon class="cls-7" points="46.05 40.88 48.9 41.61 45.07 41.93 43.2 41.11 46.05 40.88"/>
      <polygon class="cls-7" points="42.23 41.4 45.08 42.14 41.25 42.46 39.38 41.64 42.23 41.4"/>
      <polygon class="cls-7" points="49.26 42.15 51.56 42.69 48.1 43.23 46.24 42.4 49.26 42.15"/>
      <polygon class="cls-7" points="45.42 38.73 62.25 41.93 66.92 25.72 49.38 25.69 45.42 38.73"/>
      <path class="cls-7" d="M47.99,91.13c-.18,0-.36-.04-.52-.13-.56-.29-.78-.98-.49-1.54,7.98-15.35,7.91-20.6,6.45-22.3-2.23-2.58-9.98.09-17.47,2.68l-1.38.48c-20.61,7.08-25.75-6.68-25.8-6.82-.21-.59.1-1.25.69-1.46.59-.21,1.24.1,1.45.69.18.5,4.52,11.75,22.91,5.43l1.38-.48c8.96-3.1,16.7-5.77,19.94-2.02,2.92,3.38,1.02,11.05-6.15,24.84-.2.39-.6.62-1.01.62Z"/>
      <path class="cls-7" d="M16.95,7.44s-3.71-.63-3.89,5.85c-.17,6.48,6.67,5.03,7.95,2.54s1.1-8.6-4.06-8.39Z"/>
      <path class="cls-7" d="M39.37,91.13c-.37,0-.74-.18-.96-.52-.34-.53-.19-1.23.34-1.58.06-.04,6.24-4.09,6.86-8.3.18-1.25-.17-2.38-1.07-3.44-1.33-1.56-5.41-1.37-9.75-1.19-9.97.44-25.05,1.11-27.33-18.93C4.25,29.01,15,15.94,15.46,15.39c.41-.48,1.12-.54,1.6-.14.48.41.54,1.12.14,1.61-.11.13-10.57,12.95-7.48,40.06,2.04,17.92,14.75,17.35,24.96,16.91,5.33-.24,9.54-.42,11.59,1.99,1.34,1.57,1.87,3.33,1.59,5.25-.77,5.24-7.58,9.69-7.87,9.88-.19.12-.41.18-.62.18Z"/>
      <path class="cls-7" d="M23.58,59.96c-1.72,0-3.52-1.28-5.64-3.99-2.4-3.08-6.09-1.36-10.66,1.2-2.61,1.46-4.67,2.61-6.15,1.65-1.2-.79-1.19-2.47-1.07-3.66C2.68,27.96,14.32,16.75,14.82,16.29c.46-.43,1.18-.41,1.61.05s.41,1.18-.05,1.61c-.11.11-11.52,11.16-14.06,37.42-.12,1.26.09,1.56.09,1.57.45.08,2.44-1.03,3.75-1.76,3.89-2.18,9.77-5.48,13.57-.62,2.08,2.66,3.29,3.17,3.94,3.11,1.14-.09,2.27-2.1,3.35-4.04,2.1-3.76,4.98-8.9,11.3-6.04.57.26.83.94.57,1.51-.26.57-.93.83-1.51.57-4.1-1.86-5.9.67-8.36,5.08-1.44,2.58-2.81,5.02-5.17,5.2-.09,0-.18.01-.27.01Z"/>
      <path class="cls-6" d="M12.14,12.52l11.63-.84c4.05.05,3.9-2.52,3.78-3.03h0s-4.65.73-4.65.73c0,0-1.34-3.15-4.57-3.41-3.7-.3-6.61,1.97-6.19,6.54Z"/>
      <path class="cls-7" d="M11.83,12.89l-.03-.33c-.2-2.22.35-4.05,1.58-5.3,1.19-1.2,2.95-1.77,4.97-1.61,2.9.23,4.34,2.6,4.74,3.37l4.72-.74.07.31c.1.45.1,1.41-.54,2.19-.67.83-1.84,1.25-3.47,1.25-.04,0-.07,0-.11,0l-11.93.86ZM17.69,6.29c-1.56,0-2.9.5-3.83,1.44-1.03,1.04-1.52,2.57-1.41,4.43l11.29-.81c1.51.05,2.53-.32,3.08-1,.37-.46.44-.98.43-1.3l-4.56.71-.1-.24s-1.3-2.96-4.29-3.2c-.21-.02-.41-.03-.61-.03Z"/>
      <path class="cls-8" d="M35.76,47.26c-.05-.38.76-1.52.91-1.89.9-2.17-.26-4.22-2.6-4.81,0,0,.06-2.25,2.76-1.16,1.69.68,1.69,3.12,1.86,3.92.16.78,0,1.89,1.47,1.78,4.2-.33,14.4-1.14,13.79,1.77-.3,1.42-1.9.49-3.61.09-1.39-.33-2.99-.06-2.99-.06,0,0,.35,3.34-3.09,4.29-1.99.55-5.27-.79-6.93-1.58-.69-.32-1.2-.93-1.41-1.66-.07-.23-.12-.47-.15-.69Z"/>
      <path class="cls-7" d="M43.19,51.48c-1.96,0-4.47-1.03-5.94-1.72-.73-.34-1.27-.99-1.49-1.76-.08-.28-.13-.51-.16-.71h0c-.04-.29.23-.78.62-1.44.13-.22.25-.43.3-.53.4-.96.39-1.94-.03-2.77-.45-.89-1.32-1.54-2.46-1.82l-.13-.03v-.13s.04-.92.72-1.37c.53-.35,1.3-.33,2.26.06,1.5.61,1.74,2.44,1.88,3.53.03.2.05.37.07.5.03.14.05.28.07.43.08.65.16,1.23,1.04,1.23.06,0,.12,0,.19,0h.06c3.9-.31,12-.95,13.63.91.27.3.36.66.27,1.05-.07.36-.23.61-.47.75-.52.31-1.31.06-2.24-.22-.35-.11-.72-.22-1.09-.31-1.11-.27-2.37-.14-2.78-.08.02.69-.12,3.45-3.22,4.31-.34.09-.71.14-1.1.14ZM34.24,40.44c1.17.32,2.07,1.01,2.54,1.95.46.91.47,1.99.04,3.04-.05.13-.18.34-.32.57-.23.39-.61,1.03-.58,1.23h0c.03.19.07.41.15.67.19.68.67,1.25,1.32,1.56,1.72.82,4.9,2.1,6.82,1.57,3.27-.91,2.98-4.09,2.97-4.12l-.02-.15.15-.03c.07-.01,1.64-.28,3.05.06.38.09.75.21,1.11.32.81.25,1.58.49,1.98.26.16-.09.27-.27.32-.53.06-.3,0-.55-.2-.77-1.52-1.73-9.82-1.08-13.37-.8h-.06c-.07.01-.14.01-.21.01-1.17,0-1.28-.87-1.36-1.51-.02-.14-.04-.28-.06-.41-.03-.14-.05-.32-.08-.53-.13-1.02-.36-2.74-1.68-3.27-.86-.35-1.53-.38-1.96-.1-.41.27-.53.76-.56.99Z"/>
      <path class="cls-7" d="M47.92,61.96c-23.3,0-30.47-20.6-34.39-40.95-.12-.62.29-1.22.9-1.34.61-.12,1.22.29,1.34.9,4.05,21.04,11,40.32,34.32,39.04,10.58-.57,15.15-8.31,19.98-16.51,1.44-2.44,2.93-4.97,4.59-7.31,7.47-10.8,14.14-12.82,26.45-8,.53.18,1.09.39,1.67.6,4.21,1.52,8.56,3.09,12.76,2.08,4.03-1.17,6.91-4.03,10.26-7.33,5.04-4.99,10.75-10.65,22.33-12.28.61-.09,1.2.35,1.29.97.09.62-.35,1.2-.97,1.29-10.82,1.53-16.25,6.9-21.04,11.65-3.41,3.38-6.64,6.57-11.28,7.92-4.93,1.19-9.6-.5-14.12-2.14-.56-.2-1.13-.41-1.68-.6-11.36-4.44-16.92-2.77-23.79,7.17-1.61,2.27-3.08,4.76-4.49,7.16-4.92,8.36-10.02,16.99-21.82,17.63-.78.04-1.55.07-2.3.07Z"/>
      <path class="cls-7" d="M74.76,79.23c-.4,0-.75-.11-1.07-.33-1.32-.92-.83-3.06-.11-5.24,2.41-7.21,2.37-12.34-.12-14.82-3.72-3.71-11.9-1.05-11.98-1.02-.6.2-1.24-.12-1.44-.72s.12-1.24.72-1.44c.39-.13,9.6-3.14,14.31,1.57,3.18,3.18,3.41,8.95.67,17.16-.45,1.36-.58,2.1-.6,2.48,1.31-.48,4.45-2.99,7.03-5.05,4.03-3.22,9.06-7.23,13.49-9.27,20.35-9.34,35.45-.32,36.08.06.54.33.7,1.03.38,1.57-.33.54-1.03.71-1.57.38-.14-.09-14.73-8.75-33.94.06-4.18,1.92-9.08,5.83-13.02,8.98-4.58,3.66-7.14,5.64-8.84,5.64Z"/>
      <path class="cls-8" d="M152.1,14.51c-1.4,1.14-3.53.53-4.05-1.2,0-.03-.02-.06-.02-.08-.72-2.52-4.98-3.26-7.01-3.38-3.68-.22-3.22-2.12-1.4-2.86,1.82-.74,5.7-.21,6.36,1.94s2.41.99,4.22-.79,5.47-8.88,8.05-7.88c3.28,1.26-3.15,6.03-4.2,6.75-.13.09-.05.29.1.26,2.18-.35,8.48-1.07,7.98,2.53-.37,2.64-5.25,1.82-7.64,3.14-1.07.59-1.84,1.13-2.38,1.57Z"/>
      <path class="cls-7" d="M150.47,15.25c-.27,0-.54-.04-.8-.12-.87-.27-1.52-.91-1.78-1.78,0-.03-.02-.06-.03-.09-.81-2.82-6.25-3.22-6.86-3.25-2.36-.14-2.84-.93-2.92-1.39-.11-.66.48-1.38,1.46-1.78,1.29-.53,3.42-.41,4.86.28.9.42,1.49,1.04,1.72,1.77.18.59.45.93.81,1.02.88.23,2.21-.97,3.14-1.88.52-.51,1.2-1.47,1.98-2.57,1.92-2.71,4.3-6.1,6.24-5.35.62.24.96.61,1.02,1.11.25,2.16-5.14,5.88-5.19,5.92,1.74-.32,5.98-.81,7.57.74.5.49.7,1.14.59,1.93-.25,1.76-2.35,2.08-4.38,2.4-1.21.19-2.47.38-3.35.86-.91.5-1.7,1.03-2.36,1.56h0c-.5.4-1.11.62-1.73.62ZM141.49,6.83c-.68,0-1.32.1-1.83.31-.83.34-1.35.93-1.26,1.43.1.61,1.08,1.03,2.62,1.12.64.04,6.29.45,7.16,3.49,0,.03.01.05.02.08.23.76.8,1.34,1.56,1.57.77.24,1.61.07,2.24-.44h0c.67-.54,1.48-1.08,2.4-1.59.93-.51,2.22-.71,3.46-.9,2-.31,3.89-.6,4.11-2.12.1-.69-.06-1.24-.49-1.66-1.47-1.45-5.59-.96-7.3-.69-.14.03-.28-.05-.33-.19-.05-.14,0-.29.11-.37,1.12-.76,5.24-3.93,5.05-5.61-.04-.38-.31-.66-.81-.85-1.69-.65-4.11,2.75-5.86,5.23-.79,1.12-1.47,2.09-2.02,2.62-1.59,1.56-2.65,2.16-3.45,1.96-.48-.12-.83-.54-1.04-1.24-.25-.81-.98-1.3-1.55-1.57-.8-.38-1.82-.57-2.77-.57Z"/>
      <path class="cls-8" d="M131.3,64.44c-3.79-4.64,9.67-12.96,9.37-9.04-.22,2.95-8.43,3.61-4.65,5.67s12.35-1.69,9.45-3.25c-2.89-1.56-6.58-2.51-3.76-3.28,2.82-.77,7.31,1.68,7.76,3.6.61,2.57-1.41,3.7-3.26,4.19-.72.19,1.47,1.68.17,4.02-1.85,3.32-11.25,4.32-15.1-1.91Z"/>
      <path class="cls-7" d="M140.02,69.26c-3.8,0-7.14-1.73-8.96-4.66-1.11-1.37-.95-3.14.45-5.12,2.13-3.02,6.96-5.94,8.73-5.29.16.06.39.18.54.42.24-.16.56-.26.86-.34,1.85-.51,4.13.28,5.66,1.18,1.36.8,2.25,1.76,2.46,2.62.51,2.16-.69,3.76-3.38,4.5.03.09.1.22.16.33.35.69,1.01,1.96.1,3.58-.89,1.59-3.43,2.71-6.33,2.78-.1,0-.19,0-.29,0ZM139.64,54.65c-1.74,0-5.75,2.44-7.66,5.15-.87,1.23-1.65,3-.46,4.46l.02.03c1.71,2.77,4.87,4.41,8.49,4.41.09,0,.18,0,.27,0,2.7-.06,5.05-1.06,5.85-2.49.76-1.36.23-2.38-.11-3.05-.18-.35-.31-.61-.2-.85.04-.09.13-.2.32-.26,2.48-.66,3.51-1.96,3.06-3.85-.16-.69-1-1.56-2.19-2.27-1.79-1.06-3.84-1.5-5.22-1.12-.73.2-.8.36-.8.36.05.26,1.36.85,2.31,1.29.73.33,1.55.7,2.31,1.11.59.32.73.71.73.99.02.56-.48,1.17-1.42,1.75-2.09,1.28-6.52,2.38-9.04,1.01-.79-.43-1.15-.84-1.14-1.3.02-.75,1.05-1.26,2.36-1.89,1.49-.73,3.19-1.55,3.28-2.75.04-.47-.16-.6-.33-.66-.12-.04-.26-.06-.42-.06ZM140.87,55.84c-.39,1.27-2.04,2.07-3.52,2.79-.95.46-2.04.99-2.05,1.4,0,.12.1.38.85.79,2.34,1.27,6.49.22,8.47-1,.73-.45,1.16-.91,1.15-1.25,0-.18-.15-.35-.44-.51-.74-.4-1.56-.77-2.27-1.09-1.04-.47-1.77-.81-2.2-1.13Z"/>
      <g>
        <path class="cls-8" d="M48.86,88.31c-1.44-1.94-3.59,2.11-3.2,4.72.3,2.07,4.27,3.73,11.01-.28,6.74-4.01,5.78-6.79,3.47-6.05-1.16.37-4.06,2.32-6.48,3.41-3.3,1.48-4.48-1.37-4.8-1.81Z"/>
        <path class="cls-7" d="M49.42,95.36c-1.17,0-1.95-.26-2.39-.47-.86-.41-1.42-1.08-1.53-1.84-.29-1.97.83-4.81,2.1-5.33.51-.21,1-.04,1.39.49h0c.04.05.09.13.15.24.45.76,1.65,2.78,4.45,1.52,1.21-.54,2.54-1.3,3.72-1.98,1.17-.67,2.18-1.25,2.78-1.44.86-.28,1.59-.09,1.84.48.46,1.01-.62,3.16-5.18,5.86-3.27,1.94-5.68,2.47-7.33,2.47ZM48.02,87.96c-.1,0-.2.02-.3.06-1.04.43-2.2,3.02-1.91,4.98.09.65.59,1.23,1.35,1.59,2.11,1.01,5.63.26,9.42-1.98,4.68-2.78,5.35-4.78,5.05-5.45-.18-.41-.75-.53-1.45-.3-.56.18-1.56.75-2.72,1.41-1.18.67-2.52,1.44-3.75,1.99-3.07,1.37-4.42-.9-4.86-1.65-.05-.09-.1-.16-.13-.21h0c-.22-.3-.45-.44-.71-.44Z"/>
      </g>
      <g>
        <path class="cls-8" d="M39.91,89.03c-.24-2.4-4.16-.02-5.17,2.42-.79,1.93,1.76,5.39,9.61,5.39s8.43-2.89,6.07-3.43c-1.19-.27-4.67-.08-7.31-.38-3.6-.41-3.15-3.46-3.2-4Z"/>
        <path class="cls-7" d="M44.34,97.01c-6.5,0-8.72-2.27-9.37-3.25-.53-.79-.67-1.66-.38-2.36.75-1.84,3.18-3.72,4.53-3.51.54.08.88.48.95,1.13h0c0,.06,0,.16,0,.28,0,.97,0,3.23,3.05,3.58,1.32.15,2.85.18,4.2.2s2.52.04,3.13.18c.88.2,1.41.73,1.34,1.35-.13,1.1-2.15,2.4-7.45,2.4ZM38.91,88.2c-1.16,0-3.3,1.57-4.02,3.32-.25.61-.12,1.36.35,2.06,1.3,1.94,4.71,3.1,9.11,3.1,5.45,0,7.04-1.38,7.13-2.11.05-.44-.38-.84-1.09-1-.57-.13-1.73-.15-3.06-.17-1.36-.02-2.9-.05-4.23-.2-3.34-.38-3.34-3.03-3.34-3.9,0-.11,0-.19,0-.25h0c-.05-.51-.27-.78-.67-.84-.05,0-.1-.01-.16-.01Z"/>
      </g>
      <g>
        <rect class="cls-7" x="140.79" y="32.43" width=".39" height="2.39" rx=".2" ry=".2"/>
        <path class="cls-3" d="M142.83,45.97c0,2.53-.21,4.81-.55,6.46h-2.58c-.26-1.28-.45-2.97-.52-4.84-.02-.52-.03-1.07-.03-1.63,0-5.03.82-12.34,1.84-12.34s1.84,7.32,1.84,12.34Z"/>
        <path class="cls-4" d="M142.28,52.43c-.33,1.63-.78,2.63-1.29,2.63s-.96-1-1.29-2.63h2.58Z"/>
        <path class="cls-3" d="M140.1,53.93s-2.09.55-2.29-.82,1.69-6.1.65-7.14.55-1.61.7-.29-.64,6.17-.64,6.9,1.17.14,1.17-.23c.11.58.25,1.12.42,1.58Z"/>
        <line class="cls-5" x1="139.18" y1="47.59" x2="142.79" y2="47.59"/>
        <path class="cls-1" d="M141.6,52.79c-.03.18-.05.35-.08.51-.04.22-.07.43-.11.63"/>
        <path class="cls-1" d="M141.51,37.77c.31,2.72.49,5.94.49,8.6,0,1.98-.1,3.83-.28,5.42"/>
        <path class="cls-2" d="M141.27,35.91c.03.21.06.42.09.64"/>
      </g>
    </g>
  </g>
</svg>