<?xml version="1.0" encoding="UTF-8"?>
<svg id="Layer_2" data-name="Layer 2" xmlns="http://www.w3.org/2000/svg" viewBox="0 0 22.19 22.51">
  <defs>
    <style>
      .cls-1 {
        fill: #7dc242;
      }

      .cls-1, .cls-2, .cls-3 {
        stroke: #2b3088;
        stroke-miterlimit: 10;
        stroke-width: .28px;
      }

      .cls-2 {
        fill: #93c949;
      }

      .cls-3 {
        fill: #ffce06;
      }
    </style>
  </defs>
  <g id="Layer_1-2" data-name="Layer 1">
    <g>
      <path class="cls-3" d="M13.05,12.32c.02-.17-.22-.45-.53-.87-.24-.33-.51-.76-.69-1.22-.47-1-.17-2.73,1.19-2.55.68.12,1.57.39,1.97,2.89.02.11.17.11.18,0,.11-1.12-.07-2.29.51-3.22.66-1.05,2.42-1.01,2.88.22.44.96-.53,2.43-.96,2.92-.25.32.07.24.34.21,1.39-.23,3.89-.08,4.1,1.68.06.8-.57,1.67-1.67,1.96-.96.3-2.09.03-3.02-.14-.61-.08-.59.23-.51.91.09.66.25,1.73-.1,2.33-.48.92-1.49.32-1.83-.39-.3-.47-.43-1.35-.57-1.5-.25-.3-1.03.63-1.38.81-1.34,1.09-3.68,1.34-4.61-.37-1.09-2.3,2.51-3.13,3.98-3.34.26-.07.64-.07.73-.33h0Z"/>
      <path class="cls-2" d="M6.4,16.2c.83-.02,1.37.88.94,1.6-1.3,2.19-4,5.9-6.43,4.08s1.02-5.56,5.48-5.68Z"/>
      <path class="cls-1" d="M13.47,5.34s-2.48-4.3-.24-5.13c2.43-.9,2.12,7.08.24,5.13Z"/>
    </g>
  </g>
</svg>