<?xml version="1.0" encoding="UTF-8"?>
<svg id="Layer_2" data-name="Layer 2" xmlns="http://www.w3.org/2000/svg" version="1.1" viewBox="0 0 10.6 9.9">
  <defs>
    <style>
      .cls-1 {
        fill: #93a6d5;
        stroke: #2b3088;
        stroke-linecap: round;
        stroke-miterlimit: 10;
        stroke-width: .3px;
      }
    </style>
  </defs>
  <g id="Layer_1-2" data-name="Layer 1-2">
    <path class="cls-1" d="M5.5,5.2c-.5-.9-1.2-2.3-1.5-3.2,0-.1-.2-.1-.3-.1-.5,0-1,0-1.5,0C.2,1.8-.3,0,.6.2c.3,0,2.1.6,3,0,1.6-1,1.9,2.7,3,3.4.4.3-.6-.9-.6-.9,0-.3.9-.7,1.7-.4.6.2.9.1,1.2,0,1.3-.4,2.1,4.7,1.5,6-.5,1-1.3,1.4-2.4,1.1-1.4-.3-2.3-1.7-2.9-2.7-1.6-2.7-3.5-1.5-3.8-2.3-.1-.3.5-.8,1.2-.9,1-.2,1.7.3,2.1.5.2.2,1.1.7,1.5,1.8"/>
  </g>
</svg>