<?xml version="1.0" encoding="UTF-8"?>
<svg id="Layer_2" data-name="Layer 2" xmlns="http://www.w3.org/2000/svg" viewBox="0 0 16.81 21.5">
  <defs>
    <style>
      .cls-1 {
        fill: #93a6d5;
      }

      .cls-1, .cls-2, .cls-3, .cls-4, .cls-5 {
        stroke: #2b3088;
        stroke-miterlimit: 10;
        stroke-width: .28px;
      }

      .cls-2 {
        fill: #f2bd1f;
      }

      .cls-3 {
        fill: #322c81;
      }

      .cls-4 {
        fill: #8ec73f;
      }

      .cls-5 {
        fill: #f36f21;
      }
    </style>
  </defs>
  <g id="Layer_1-2" data-name="Layer 1">
    <g>
      <path class="cls-1" d="M10.76,12.12c1.4.06,2.43-1.31,1.95-2.62,0-.02-.02-.04-.02-.06-.72-1.9,1.58-4.32,2.78-5.33,2.18-1.83,1.02-2.8-.45-2.42s-3.63,2.51-3.04,4.14-1.03,1.73-2.98,1.47S1.5,4.33.36,6.14c-1.45,2.3,4.74,2.28,5.72,2.23.12,0,.16.16.06.21-1.51.79-5.75,3.26-3.77,5.25,1.45,1.47,4.09-1.3,6.19-1.59.93-.13,1.66-.15,2.2-.13Z"/>
      <path class="cls-2" d="M9.9,17.97c1.07-.14,2.02-.55,2.7-1.1l.17,1.28c.21,1.54-.88,2.97-2.42,3.18s-2.97-.89-3.18-2.43l-.17-1.28c.8.35,1.83.49,2.9.35Z"/>
      <path class="cls-5" d="M12.43,15.58l.17,1.29c-.67.54-1.63.95-2.7,1.1s-2.1,0-2.9-.35l-.17-1.29c.8.35,1.83.49,2.9.35s2.02-.55,2.7-1.1Z"/>
      <path class="cls-4" d="M11.12,5.81l1.31,9.77c-.67.54-1.63.95-2.7,1.1s-2.1,0-2.9-.35l-1.31-9.77c-.13-.96.08-3.16.63-4.71.46.2,1.02.34,1.63.24.59-.1,1.05-.43,1.4-.79.22.31.44.66.64,1.02.68,1.25,1.2,2.72,1.3,3.49Z"/>
      <path class="cls-3" d="M9.17,1.3c-.35.36-.81.69-1.4.79-.6.1-1.16-.04-1.63-.24.14-.38.3-.73.48-1.01.25-.39.55-.65.89-.69.3-.04.6.08.9.32.26.21.51.49.76.83Z"/>
    </g>
  </g>
</svg>