<?xml version="1.0" encoding="UTF-8"?>
<svg id="Layer_2" data-name="Layer 2" xmlns="http://www.w3.org/2000/svg" viewBox="0 0 165.76 89.14">
  <defs>
    <style>
      .cls-1 {
        fill: #ffce06;
      }

      .cls-1, .cls-2, .cls-3, .cls-4, .cls-5, .cls-6, .cls-7, .cls-8, .cls-9, .cls-10 {
        stroke-width: 0px;
      }

      .cls-2 {
        fill: #f2bd1f;
      }

      .cls-3 {
        fill: #e9a7cb;
      }

      .cls-4 {
        fill: #f3e21b;
      }

      .cls-5 {
        fill: #2b3088;
      }

      .cls-6 {
        fill: #93a6d5;
      }

      .cls-7 {
        fill: #322c81;
      }

      .cls-8 {
        fill: #8ec73f;
      }

      .cls-9 {
        fill: #f36f21;
      }

      .cls-10 {
        fill: #d26b3e;
      }
    </style>
  </defs>
  <g id="Layer_1-2" data-name="Layer 1">
    <g>
      <path class="cls-5" d="M124.36,10.15s3.65-.62,3.82,5.75c.17,6.38-6.56,4.95-7.82,2.5s-1.08-8.45,3.99-8.25Z"/>
      <path class="cls-5" d="M101.69,83.67c-.46,0-.89-.28-1.05-.74-.78-2.11-7.37-20.76.18-24.99,7.96-4.45,13.99,2.52,19.31,8.68,1.88,2.17,3.65,4.23,5.4,5.67,1.62,1.34,3.48,2.67,5.13,2.34,1.37-.27,4.2-2.71,6.12-10.12,7.49-28.81-11.68-49.4-11.88-49.6-.43-.45-.41-1.16.04-1.59.45-.42,1.16-.41,1.59.04.2.21,20.23,21.7,12.43,51.71-2.6,9.98-6.67,11.52-7.86,11.76-2.56.5-4.86-1.05-6.99-2.81-1.89-1.57-3.73-3.69-5.67-5.93-4.99-5.78-10.15-11.76-16.51-8.19-4.99,2.8-1.09,17.01.83,22.26.21.58-.08,1.22-.67,1.44-.13.05-.26.07-.39.07Z"/>
      <path class="cls-5" d="M107.28,42.27c-5.74,0-11.47-2.8-14.8-7.5-6.77-9.78-12.23-11.43-23.36-7.08-15.08,5.9-21.82.75-28.96-4.7-4.73-3.62-9.63-7.36-17.53-8.52-.61-.09-1.04-.66-.95-1.27.09-.61.67-1.04,1.27-.95,8.47,1.24,13.83,5.34,18.56,8.96,6.91,5.28,12.88,9.84,26.78,4.4,12.1-4.73,18.66-2.74,26.01,7.88,3,4.23,9.57,7.71,16.28,6.17,7.87-1.81,13.37-9.82,15.5-22.56.1-.61.67-1.03,1.29-.92.61.1,1.02.68.92,1.29-3.08,18.48-12.1,23.2-17.21,24.37-1.25.29-2.54.43-3.82.43Z"/>
      <path class="cls-5" d="M123.71,79.68c-2.29,0-4.44-.65-6.12-2-4.27-3.41-4.38-10.03-.28-17.72.77-1.44.91-2.48.41-3.08-1.42-1.7-10.52-2.21-28.93,3.65-.59.19-1.22-.14-1.41-.73s.14-1.22.73-1.41c.07-.02,6.63-2.1,13.62-3.54,9.88-2.04,15.67-1.84,17.71.6,1.14,1.37,1.09,3.24-.15,5.57-3.55,6.66-3.66,12.23-.3,14.91,3.21,2.56,8.7,1.84,12.77-1.69.47-.4,1.17-.36,1.58.11.41.47.36,1.18-.11,1.58-2.84,2.46-6.31,3.75-9.51,3.75Z"/>
      <path class="cls-6" d="M100.43,81.3c.24-2.36,4.09-.02,5.08,2.38.78,1.9-1.73,5.3-9.44,5.3s-8.29-2.84-5.97-3.37c1.17-.27,4.6-.07,7.19-.37,3.54-.41,3.09-3.4,3.15-3.94Z"/>
      <path class="cls-5" d="M96.07,89.14c-5.21,0-7.2-1.27-7.32-2.36-.07-.61.45-1.13,1.31-1.33.6-.14,1.75-.16,3.07-.18s2.84-.05,4.13-.2c3.01-.34,3-2.65,3-3.52,0-.12,0-.21,0-.27h0c.06-.64.4-1.03.93-1.11,1.34-.19,3.71,1.64,4.45,3.45.29.7.15,1.54-.37,2.32-.64.96-2.83,3.19-9.22,3.19ZM100.59,81.32c0,.05,0,.14,0,.24,0,.85,0,3.46-3.28,3.84-1.31.15-2.83.18-4.16.2-1.31.02-2.44.04-3.01.17-.7.16-1.12.55-1.07.98.08.72,1.65,2.07,7.01,2.07,4.32,0,7.67-1.14,8.95-3.05.46-.69.59-1.43.34-2.02-.74-1.8-3.02-3.42-4.11-3.25-.39.06-.61.33-.66.83h0Z"/>
      <path class="cls-6" d="M90.87,58.49c2.36.24.02,4.09-2.38,5.08-1.9.78-5.3-1.73-5.3-9.44,0-7.71,2.84-8.29,3.37-5.97.27,1.17.07,4.6.37,7.19.41,3.54,3.4,3.09,3.94,3.15Z"/>
      <path class="cls-5" d="M87.79,63.87c-.51,0-1.05-.18-1.56-.52-.96-.64-3.19-2.83-3.19-9.22,0-5.21,1.27-7.2,2.36-7.32.63-.06,1.13.45,1.33,1.31.14.6.16,1.75.18,3.07s.05,2.84.2,4.13c.34,2.95,2.56,3,3.47,3,.03,0,.06,0,.09,0,.1,0,.18,0,.24,0h0c.64.06,1.03.39,1.11.93.2,1.34-1.64,3.71-3.45,4.45-.24.1-.5.15-.76.15ZM85.5,47.12s-.05,0-.07,0c-.72.08-2.07,1.65-2.07,7.01,0,4.32,1.14,7.67,3.05,8.95.69.46,1.43.59,2.02.34,1.8-.74,3.41-3.02,3.25-4.11-.06-.39-.33-.61-.83-.66h0c-.05,0-.14,0-.24,0-.02,0-.03,0-.05,0-.9,0-3.42-.06-3.79-3.28-.15-1.31-.18-2.83-.2-4.16-.02-1.31-.04-2.44-.17-3.01-.15-.66-.51-1.07-.91-1.07Z"/>
      <path class="cls-3" d="M127.32,11.24l-7.89,8.32c-2.49,3.1-4.35,1.39-4.66.99h0s3.45-3.08,3.45-3.08c0,0-1.56-2.98.26-5.6,2.08-3,5.61-3.8,8.83-.63Z"/>
      <path class="cls-5" d="M116.53,21.72h-.02c-.99,0-1.72-.61-2-.96l-.19-.24,3.5-3.12c-.34-.79-1.24-3.36.39-5.7,1.13-1.63,2.67-2.62,4.33-2.78,1.71-.15,3.45.57,5.01,2.1l.23.23-8.11,8.56c-1.02,1.27-2.08,1.93-3.15,1.93ZM115.26,20.57c.24.2.68.48,1.26.48h.01c.85,0,1.74-.57,2.64-1.7l7.68-8.1c-1.35-1.24-2.83-1.82-4.25-1.69-1.46.14-2.82,1.02-3.84,2.49-1.68,2.43-.25,5.23-.24,5.26l.12.23-3.39,3.02Z"/>
      <path class="cls-6" d="M21.06,15.4c1.78.07,3.09-1.66,2.49-3.33,0-.03-.02-.05-.03-.08-.92-2.41,2.01-5.49,3.54-6.78,2.77-2.33,1.29-3.56-.58-3.08-1.87.48-4.61,3.19-3.87,5.27s-1.31,2.2-3.79,1.87-9.53-3.77-10.98-1.47c-1.84,2.92,6.03,2.9,7.28,2.84.15,0,.21.2.07.27-1.92,1-7.31,4.15-4.8,6.68,1.85,1.86,5.2-1.66,7.87-2.02,1.19-.16,2.12-.19,2.8-.16Z"/>
      <path class="cls-5" d="M11.71,18.28c-.53,0-1.01-.17-1.43-.59-.55-.56-.78-1.19-.68-1.87.33-2.15,3.97-4.26,5.51-5.07-.08.04-6.48.28-7.56-1.58-.25-.43-.2-.93.15-1.48,1.09-1.73,4.96-.47,8.06.54,1.27.41,2.36.77,3.07.86,1.27.17,3.03.32,3.58-.37.23-.28.24-.71.04-1.28-.25-.71-.14-1.54.31-2.4.73-1.38,2.34-2.74,3.67-3.08,1.01-.26,1.89-.05,2.2.54.21.41.3,1.32-1.48,2.81-.46.39-4.51,3.91-3.49,6.61l.03.08c.3.84.17,1.73-.35,2.45-.51.69-1.31,1.1-2.17,1.1-.04,0-.08,0-.11,0-.83-.04-1.76.02-2.77.16-.98.14-2.08.72-3.15,1.29-1.18.63-2.39,1.27-3.43,1.27ZM15.12,10.47c.14,0,.26.09.29.22.04.14-.02.28-.15.35-1.5.79-5.04,2.83-5.35,4.83-.09.58.1,1.11.59,1.6,1.07,1.07,2.73.19,4.48-.74,1.09-.58,2.22-1.18,3.25-1.33,1.03-.14,1.99-.19,2.83-.16h0c.79.03,1.55-.33,2.02-.97.46-.63.58-1.42.31-2.15l-.03-.08c-1.1-2.9,3.1-6.56,3.58-6.96,1.16-.98,1.68-1.88,1.4-2.42-.23-.44-.99-.6-1.83-.38-1.25.32-2.77,1.61-3.46,2.92-.29.55-.57,1.36-.29,2.15.24.68.21,1.22-.09,1.59-.51.63-1.7.78-3.87.49-.74-.1-1.85-.46-3.13-.88-2.84-.92-6.74-2.19-7.7-.67-.28.45-.33.83-.14,1.15.84,1.44,5.95,1.51,7.28,1.45h.01Z"/>
      <g>
        <path class="cls-2" d="M19.97,22.84c1.36-.18,2.58-.7,3.43-1.4l.22,1.63c.26,1.95-1.12,3.78-3.08,4.04s-3.78-1.14-4.05-3.09l-.22-1.63c1.02.44,2.33.63,3.69.44Z"/>
        <path class="cls-5" d="M20.06,27.31c-.82,0-1.61-.27-2.28-.78-.8-.61-1.31-1.49-1.44-2.48l-.25-1.91.26.11c1.04.45,2.33.61,3.61.43h0c1.29-.17,2.48-.65,3.35-1.36l.22-.18.25,1.91c.13.99-.13,1.97-.74,2.77-.61.8-1.49,1.32-2.48,1.45-.17.02-.34.03-.5.03ZM16.47,22.65l.18,1.36c.12.9.59,1.71,1.32,2.27.73.56,1.64.81,2.54.68.9-.12,1.71-.59,2.27-1.33.56-.73.8-1.63.68-2.54l-.18-1.35c-.89.65-2.05,1.09-3.29,1.26h0c-1.23.17-2.47.04-3.52-.35Z"/>
      </g>
      <g>
        <path class="cls-9" d="M23.18,19.81l.22,1.64c-.86.69-2.07,1.21-3.43,1.4s-2.67,0-3.69-.44l-.22-1.64c1.02.44,2.33.63,3.69.44s2.58-.7,3.43-1.4Z"/>
        <path class="cls-5" d="M18.93,23.07c-.97,0-1.91-.18-2.71-.53l-.08-.04-.27-2.01.26.11c1.04.45,2.32.61,3.61.43,1.29-.17,2.48-.66,3.35-1.36l.22-.18.27,2.01-.07.06c-.92.74-2.17,1.25-3.51,1.43-.36.05-.71.07-1.07.07ZM16.42,22.29c1.03.42,2.28.56,3.53.4,1.25-.17,2.42-.63,3.28-1.31l-.17-1.28c-.89.65-2.05,1.09-3.29,1.26-1.24.16-2.48.04-3.52-.35l.17,1.28Z"/>
      </g>
      <g>
        <path class="cls-8" d="M21.52,7.37l1.66,12.43c-.86.69-2.07,1.21-3.43,1.4s-2.67,0-3.69-.44l-1.66-12.43c-.16-1.22.1-4.02.8-5.99.59.26,1.3.43,2.07.3.75-.13,1.34-.55,1.78-1.01.28.4.56.84.82,1.3.87,1.59,1.53,3.47,1.66,4.44Z"/>
        <path class="cls-5" d="M18.71,21.43c-.97,0-1.91-.18-2.71-.53l-.08-.04v-.09s-1.67-12.43-1.67-12.43c-.17-1.3.12-4.11.81-6.06l.06-.16.16.07c.68.3,1.35.4,1.98.29.6-.1,1.17-.43,1.69-.96l.13-.14.11.16c.3.42.58.86.83,1.32.81,1.49,1.53,3.42,1.68,4.49l1.67,12.52-.07.06c-.92.74-2.16,1.25-3.51,1.43-.36.05-.71.07-1.06.07ZM16.21,20.65c1.03.42,2.27.57,3.52.4,1.26-.17,2.42-.63,3.28-1.31l-1.65-12.34c-.12-.88-.73-2.72-1.64-4.38-.21-.39-.45-.77-.7-1.13-.53.51-1.11.81-1.73.92-.64.11-1.31.02-2-.25-.62,1.85-.9,4.53-.74,5.75l1.65,12.34Z"/>
      </g>
      <g>
        <path class="cls-7" d="M19.05,1.63c-.44.46-1.02.88-1.78,1.01-.77.13-1.48-.05-2.07-.3.18-.49.38-.92.61-1.29.32-.49.7-.82,1.13-.88.38-.05.76.1,1.15.41.33.26.65.62.96,1.05Z"/>
        <path class="cls-5" d="M16.75,2.84c-.52,0-1.06-.12-1.61-.36l-.14-.06.05-.14c.2-.54.4-.97.63-1.32.37-.57.79-.89,1.24-.95.41-.05.82.09,1.27.44.33.26.65.62.99,1.08l.08.11-.09.1c-.56.59-1.19.94-1.87,1.05-.18.03-.37.05-.55.05ZM15.4,2.25c.63.25,1.25.33,1.84.23.57-.1,1.1-.39,1.6-.87-.29-.39-.57-.69-.85-.91-.37-.3-.71-.41-1.03-.38-.35.05-.7.32-1.01.81-.19.3-.37.66-.54,1.11Z"/>
      </g>
      <path class="cls-6" d="M117.95,48.88l-4.39-13.75c-.06-.19-.24-.32-.44-.32h-19.31c-.31,0-.53.29-.45.59,1.19,4.1,4.58,15.98,5.17,18.03.05.19.21.32.41.33l23.44,2.01c.11,0,.23-.02.32-.09,4.47-3.39,8.74-6.05,11.12-7.46.43-.26.21-.92-.29-.86-4.36.52-13.14,1.6-15.07,1.84-.22.03-.43-.11-.5-.32Z"/>
      <path class="cls-5" d="M122.42,56.12s-.05,0-.07,0l-23.44-2.01c-.33-.03-.61-.25-.7-.57-.59-2.06-3.98-13.93-5.17-18.03-.07-.24-.02-.5.13-.7s.38-.32.64-.32h19.32c.35,0,.65.22.76.55l4.39,13.75c.02.06.1.1.14.09,1.93-.24,10.72-1.32,15.08-1.84.39-.04.73.17.85.53.12.37-.02.74-.35.94-2.69,1.6-6.79,4.19-11.09,7.44-.14.11-.31.16-.48.16ZM93.81,35.15c-.06,0-.09.03-.11.05s-.04.06-.02.12c1.19,4.1,4.58,15.98,5.17,18.03.01.05.06.09.12.09l23.44,2.01s.07,0,.09-.03c4.32-3.27,8.45-5.87,11.15-7.48.08-.05.07-.11.06-.16-.01-.04-.06-.1-.14-.09-4.36.52-13.14,1.6-15.07,1.84-.41.06-.74-.19-.85-.55l-4.39-13.75c-.02-.05-.07-.09-.13-.09h-19.32Z"/>
      <polygon class="cls-5" points="117.92 51.78 115.66 52.31 119.06 52.84 120.89 52.03 117.92 51.78"/>
      <polygon class="cls-1" points="116.46 49.16 99.91 52.31 95.32 36.37 112.57 36.34 116.46 49.16"/>
      <path class="cls-5" d="M142.84,60.15c-6.62,0-15.58-3.99-25.26-11.59-.49-.38-.57-1.09-.19-1.58.38-.48,1.09-.57,1.58-.19,13.71,10.77,26.02,14.09,30.65,8.29,6.82-8.57-14.07-28.64-22.69-35.64-.48-.39-.55-1.1-.16-1.58.39-.48,1.1-.55,1.58-.16,1.34,1.09,32.62,26.73,23.03,38.78-1.96,2.47-4.9,3.67-8.53,3.67Z"/>
      <path class="cls-5" d="M155.36,36.52c-.29,0-.58,0-.88-.03-12.58-.77-27.5-17.75-28.13-18.48-.41-.47-.36-1.18.11-1.58.47-.41,1.17-.36,1.58.11.15.17,14.93,17,26.57,17.71,2.82.16,5.16-.61,7.13-2.38,1.93-1.74,2.29-4.18.99-6.72-2.31-4.5-9.08-8.1-17.56-6.25-.61.13-1.2-.25-1.33-.86s.25-1.2.86-1.33c9.6-2.09,17.34,2.15,20.04,7.41,1.77,3.46,1.21,6.98-1.49,9.41-2.2,1.98-4.85,2.98-7.89,2.98Z"/>
      <g>
        <g>
          <rect class="cls-10" x="134.93" y="16.6" width="11.61" height="2.73" rx="1.36" ry="1.36" transform="translate(170.6 156.66) rotate(-109.43)"/>
          <path class="cls-5" d="M142.21,23.67c-.22,0-.45-.05-.66-.15-.37-.18-.64-.48-.78-.87l-2.95-8.37c-.28-.79.14-1.67.93-1.95.38-.13.8-.11,1.17.06.37.18.64.48.78.87l2.95,8.37c.28.79-.14,1.66-.93,1.94-.17.06-.34.09-.51.09ZM139.26,12.57c-.13,0-.27.02-.4.07-.63.22-.96.91-.74,1.54l2.95,8.37c.11.3.33.55.62.69.29.14.62.16.92.05.63-.22.96-.91.74-1.54l-2.95-8.37c-.17-.5-.64-.81-1.14-.81Z"/>
        </g>
        <g>
          <path class="cls-8" d="M139.4,13.24c.62-.2,2.09-1.22.87-3.72-.5-1.02-1.91-2.39-2.37-3.14s-.22-1.61-.22-1.61c-.37.12-1.1,1.26-1.47,1.9-.5.87-1.4,4.48.93,6.25.91.69,1.64.52,2.25.32Z"/>
          <path class="cls-5" d="M138.48,13.58c-.43,0-.9-.13-1.42-.53-2.45-1.86-1.46-5.62-.97-6.46.25-.42,1.08-1.82,1.55-1.97l.29-.1-.09.29s-.23.78.2,1.48c.18.3.53.71.9,1.15.55.65,1.17,1.38,1.47,2,.52,1.07.63,1.99.31,2.74-.28.67-.86,1.06-1.27,1.2h0c-.3.1-.62.19-.98.19ZM137.46,5.14c-.29.31-.7.9-1.11,1.61-.46.79-1.4,4.31.89,6.05.84.63,1.5.49,2.11.29h0c.35-.11.84-.45,1.08-1.02.28-.66.18-1.5-.3-2.48-.29-.58-.89-1.3-1.43-1.94-.38-.45-.74-.87-.93-1.19-.29-.48-.33-.98-.31-1.32Z"/>
        </g>
      </g>
      <g>
        <path class="cls-6" d="M137.66,14.55c2.04,1.68,6.1,1.06,5.26-1.54-1.56-4.8,5.41-4.28,3.16-1.76-3.22,3.61-.71,4.27-.25,6.33.59,2.62-.99,4.4-3.94,4.85-2.65.4-4.81-1.02-5.87-3.22-1.37-2.85.09-5.93,1.63-4.66Z"/>
        <path class="cls-5" d="M141.01,22.66c-2.19,0-4.11-1.24-5.13-3.38-.95-1.99-.58-4.19.36-4.93.47-.36,1.02-.33,1.52.08h0c1.32,1.09,3.44,1.13,4.45.43.42-.29.86-.84.55-1.8-.75-2.3.45-3.24,1-3.53.96-.51,2.23-.41,2.72.22.2.25.42.8-.29,1.6-2.24,2.52-1.63,3.51-.93,4.65.28.46.58.94.71,1.54.27,1.19.1,2.27-.48,3.12-.69,1.01-1.93,1.67-3.59,1.93-.3.04-.6.07-.9.07ZM136.93,14.42c-.17,0-.34.06-.5.19-.84.66-1.16,2.69-.27,4.54,1.1,2.3,3.29,3.5,5.7,3.13,1.57-.24,2.74-.86,3.38-1.79.54-.78.68-1.75.43-2.87-.12-.55-.4-1-.67-1.44-.74-1.2-1.44-2.33.96-5.03.3-.33.59-.81.28-1.2-.35-.45-1.44-.61-2.32-.14-.6.32-1.5,1.15-.85,3.15.29.9.05,1.67-.67,2.16-1.25.85-3.51.64-4.84-.45h0c-.21-.17-.42-.26-.62-.26Z"/>
      </g>
      <path class="cls-5" d="M54.84,87.89c-.41,0-.82,0-1.23-.01-24.68-.5-39.07-16.2-41.41-27.18-.13-.61.26-1.2.86-1.33.61-.13,1.2.26,1.33.86,2.18,10.26,15.8,24.93,39.26,25.41,11.11.2,19.32-2.65,23.09-8.1,2.94-4.24,3.08-10.02.41-16.72-3.97-9.96-4.11-17.65-.44-22.86,4.97-7.06,14.97-6.78,15.4-6.77.62.02,1.1.54,1.08,1.16s-.52,1.08-1.16,1.08c-.11,0-9.24-.24-13.5,5.83-3.2,4.55-2.96,11.53.7,20.73,2.96,7.43,2.74,13.94-.65,18.83-4.07,5.87-12.48,9.08-23.75,9.08Z"/>
      <path class="cls-6" d="M120.53,47.92c.15-.34-.31-1.64-.36-2.03-.27-2.3,1.36-3.93,3.74-3.86,0,0,.54-2.15-2.3-1.83-1.78.2-2.42,2.51-2.79,3.22s-.5,1.79-1.86,1.3c-3.89-1.42-13.33-4.89-13.53-1.98-.09,1.42,1.66.97,3.39,1.04,1.41.05,2.84.73,2.84.73,0,0-1.22,3.07,1.79,4.88,1.74,1.05,5.2.64,6.98.34.74-.13,1.38-.56,1.77-1.2.12-.2.24-.42.33-.61Z"/>
      <path class="cls-5" d="M114.84,50.23c-1.31,0-2.59-.17-3.47-.7-2.71-1.64-2.1-4.29-1.9-4.93-.38-.16-1.53-.62-2.65-.66-.38-.01-.75,0-1.12,0-.95.03-1.77.05-2.18-.38-.19-.2-.27-.48-.25-.83.03-.4.21-.71.54-.93,2.03-1.32,9.54,1.42,13.16,2.75l.05.02c.99.36,1.22-.19,1.49-.83.06-.14.11-.27.18-.39.06-.12.13-.27.2-.46.42-1,1.13-2.67,2.71-2.85,1.02-.12,1.75.07,2.16.54.53.61.33,1.45.32,1.49l-.03.12h-.13c-1.17-.03-2.16.35-2.82,1.07-.61.67-.88,1.6-.76,2.61.01.12.07.34.14.59.19.73.32,1.26.21,1.52h0c-.08.19-.19.39-.34.63-.41.68-1.1,1.14-1.88,1.27-.95.16-2.3.34-3.62.34ZM106.41,43.61c.14,0,.27,0,.41,0,1.42.05,2.85.72,2.91.75l.13.06-.05.14c-.05.12-1.13,2.96,1.72,4.69,1.67,1.01,5.03.64,6.87.32.69-.12,1.3-.53,1.66-1.13.14-.23.24-.42.32-.59h0c.08-.18-.11-.89-.22-1.32-.07-.26-.13-.49-.15-.63-.13-1.11.17-2.13.84-2.87.7-.76,1.73-1.18,2.92-1.18h0c.03-.23.05-.72-.27-1.08-.34-.39-.97-.53-1.88-.43-1.4.16-2.06,1.72-2.46,2.66-.08.19-.15.36-.21.48-.06.11-.11.24-.17.37-.26.62-.62,1.47-1.89,1l-.05-.02c-3.28-1.2-10.98-4.01-12.87-2.78-.25.16-.38.38-.4.68-.02.27.03.46.16.59.31.33,1.1.31,1.94.28.24,0,.48-.01.73-.01Z"/>
      <path class="cls-6" d="M12.99,61.59c5.75-1.25.48-15.89-1.69-12.69-1.63,2.41,4.28,7.93.11,7.21-4.17-.73-7.73-6.16-5.29-8.28s-.11-9.5-2.9-7.28c-2.25,1.79,1.14,3.88-.38,5.07-2.04,1.61-1.17,3.71-.05,5.22.44.59-2.16.39-2.59,2.99-.61,3.69,6.02,10.2,12.79,7.76Z"/>
      <path class="cls-5" d="M9.95,62.27c-2.35,0-4.74-.89-6.77-2.58-2.16-1.8-3.42-4.17-3.13-5.9.29-1.74,1.49-2.28,2.2-2.61.17-.08.41-.19.43-.24-1.67-2.24-1.64-4.12.06-5.46.56-.44.36-1-.02-1.86-.41-.96-.93-2.15.4-3.21.91-.72,1.92-.56,2.76.45,1.4,1.69,2.11,5.53.34,7.07-.71.61-.92,1.59-.59,2.75.59,2.14,2.98,4.76,5.81,5.25.67.12,1.09.07,1.25-.13.29-.38-.2-1.39-.71-2.45-.76-1.58-1.62-3.37-.81-4.55.39-.58.84-.58,1.16-.47,1.73.58,3.6,5.71,3.4,9.29-.13,2.33-1.06,3.75-2.7,4.11-1,.36-2.04.53-3.08.53ZM4.28,40.28c-.3,0-.62.11-.96.38-1.14.91-.72,1.89-.31,2.83.35.8.7,1.63-.08,2.24-1.95,1.53-1.09,3.56-.02,5,.07.1.1.2.07.29-.05.2-.27.3-.61.45-.66.3-1.76.8-2.02,2.37-.27,1.62.95,3.87,3.02,5.6,2.85,2.37,6.42,3.11,9.55,1.99h.02c1.88-.41,2.38-2.31,2.46-3.83.2-3.67-1.73-8.48-3.19-8.97-.31-.1-.57.01-.79.35-.7,1.03.12,2.73.84,4.24.6,1.26,1.08,2.25.67,2.78-.24.32-.73.4-1.56.25-2.95-.52-5.44-3.25-6.06-5.48-.36-1.29-.11-2.38.69-3.08,1.51-1.31,1.06-4.9-.37-6.62-.34-.4-.8-.79-1.36-.79Z"/>
      <path class="cls-4" d="M93.55,11.71s3.63-4.31,10.1-3.36c4.85.71,6.8,5.5-1.02,3.75,0,0,1.94,3.25-4.96,2.45,0,0,.55,1.91,4.03,2.44,1.8.27,3.79-.83,5.45-1.17,2.34-.47,3.46.32,3.3,1.45-.5,3.51-7.13,1.48-7.13,1.48,0,0,1.63,1.57,2.1,3.05.46,1.48-.24,2.88-2.24,2.17-4-1.41-3.16-6.55-3.16-6.55,0,0-4.21,4.25-7.91,1.11-1.84-1.56-1.86-3.76-1.59-5.72.38-2.78-.93-2.83-.93-2.83,0,0,.54-1.56,2.17-1.31.94.14,1.91,1.24,1.81,3.04Z"/>
      <path class="cls-5" d="M104.15,24.32c-.29,0-.63-.06-1.03-.2-1.69-.6-2.79-1.96-3.18-3.93-.2-.98-.17-1.87-.13-2.38-1.06.92-4.63,3.53-7.81.83-1.95-1.65-1.9-4-1.64-5.87.19-1.4-.06-2.06-.31-2.36-.22-.27-.47-.29-.48-.29h-.21s.07-.21.07-.21c0-.02.61-1.66,2.35-1.41.95.14,1.9,1.16,1.95,2.8.99-.97,4.48-3.92,9.96-3.12,2.31.34,3.91,1.56,4.29,2.59.17.45.1.87-.18,1.2-.65.75-2.38.87-4.88.35.13.35.26.94-.09,1.48-.58.9-2.23,1.22-4.89.94.28.51,1.2,1.7,3.79,2.09,1.16.18,2.41-.24,3.61-.65.62-.21,1.21-.41,1.78-.52,1.41-.29,2.5-.14,3.09.41.33.32.47.74.4,1.22-.1.71-.45,1.26-1.03,1.63-1.59,1.01-4.52.44-5.75.14.52.57,1.41,1.65,1.73,2.7.27.88.15,1.71-.33,2.17-.21.2-.55.4-1.08.4ZM100.25,16.96l-.08.49s-.77,5.03,3.06,6.38c.79.28,1.41.24,1.79-.13.39-.38.48-1.08.25-1.84-.45-1.43-2.04-2.97-2.06-2.98l-.48-.46.64.2s4.16,1.25,6.05.05c.5-.32.8-.79.88-1.4.05-.38-.05-.71-.31-.95-.5-.47-1.52-.59-2.81-.33-.55.11-1.13.31-1.75.51-1.24.42-2.53.85-3.76.66-3.53-.54-4.13-2.47-4.16-2.55l-.07-.23.24.03c3.35.38,4.5-.2,4.86-.77.41-.64-.05-1.44-.05-1.45l-.19-.32.36.08c3.56.8,4.6.14,4.88-.18.2-.23.24-.53.12-.87-.34-.92-1.87-2.06-4.04-2.38-6.32-.93-9.92,3.27-9.95,3.31l-.31.37.03-.48c.1-1.69-.79-2.74-1.67-2.88-1.19-.18-1.75.67-1.93,1.04.14.05.32.15.49.35.43.51.56,1.39.39,2.62-.25,1.79-.3,4.03,1.53,5.58,1.49,1.26,3.23,1.46,5.18.6,1.47-.65,2.51-1.69,2.52-1.7l.35-.35Z"/>
    </g>
  </g>
</svg>