<?xml version="1.0" encoding="UTF-8"?>
<svg id="Layer_2" data-name="Layer 2" xmlns="http://www.w3.org/2000/svg" viewBox="0 0 11.34 12.97">
  <defs>
    <style>
      .cls-1 {
        fill: #93a6d5;
        stroke: #2b3088;
        stroke-linecap: round;
        stroke-miterlimit: 10;
        stroke-width: .28px;
      }
    </style>
  </defs>
  <g id="Layer_1-2" data-name="Layer 1">
    <path class="cls-1" d="M5.32,7.88C1.75,5.12-1.07.96.67.23c1-.43,1.25.86,1.88,2.06.19.36.73,1.32,1.09,1.82.61.86,1.5,2.15,2.54,2.91.42.3-.45-.41-.45-.41-.06-.32.72-.76,1.51-.43.61.25.86.12,1.16.02,1.27-.42,2.17.73,2.55,2.1.16.57.65,3.14-.34,3.87-2.55,1.88-3.49-.7-5.19-1.4-1.41-.59-.53-3.16-.15-2.91.15.09.31.22.76.84"/>
  </g>
</svg>