<?xml version="1.0" encoding="UTF-8"?>
<svg id="Layer_2" data-name="Layer 2" xmlns="http://www.w3.org/2000/svg" viewBox="0 0 676.01 196.97">
  <defs>
    <style>
      .cls-1 {
        fill: #f3d718;
      }

      .cls-1, .cls-2, .cls-3 {
        stroke-width: 0px;
      }

      .cls-4 {
        fill: #231f20;
        font-family: HalyardDisplay-Medium, 'Halyard Display';
        font-size: 28.1px;
        font-variation-settings: 'wght' 500;
        font-weight: 500;
      }

      .cls-2 {
        fill: #2b3088;
      }

      .cls-3 {
        fill: #93a6d5;
      }
    </style>
  </defs>
  <g id="Layer_1-2" data-name="Layer 1">
    <g>
      <rect class="cls-3" x="427.72" y="22.01" width="238.01" height="145.42" rx="15.67" ry="15.67" transform="translate(1057.59 311.31) rotate(-166.85)"/>
      <text class="cls-4" transform="translate(496.16 75.09) rotate(13.25) scale(1.02 1)"><tspan x="0" y="0">Project 02</tspan></text>
      <g>
        <path class="cls-3" d="M86.08,196.97c23.49,0,46.92-11.45,60.55-30.68,27.68-40.02,50-46.76,95.55-28.95,61.69,24.14,89.27,3.07,118.48-19.24,19.37-14.8,39.4-30.1,71.69-34.85,2.51-.37,4.24-2.7,3.87-5.21-.37-2.51-2.73-4.24-5.2-3.87-34.65,5.09-56.58,21.85-75.93,36.64-28.27,21.6-52.68,40.24-109.56,17.98-49.49-19.37-76.34-11.23-106.41,32.23-12.28,17.31-39.13,31.56-66.6,25.25-32.19-7.39-54.71-40.17-63.41-92.28-.42-2.5-2.74-4.2-5.28-3.77-2.5.42-4.18,2.78-3.77,5.28,12.61,75.58,49.52,94.92,70.4,99.71,5.13,1.18,10.38,1.75,15.62,1.75Z"/>
        <g>
          <path class="cls-1" d="M438.79,87.03c-7.28.3-12.65-6.79-10.17-13.64.04-.11.08-.22.12-.33,3.75-9.87-8.21-22.48-14.46-27.75-11.33-9.55-5.29-14.58,2.36-12.6,7.65,1.98,18.87,13.06,15.83,21.57-3.04,8.51,5.36,8.98,15.5,7.63,10.13-1.35,38.99-15.43,44.92-6.02,7.54,11.96-24.66,11.86-29.79,11.63-.62-.03-.84.81-.29,1.1,7.86,4.11,29.91,16.97,19.63,27.34-7.56,7.63-21.28-6.77-32.19-8.28-4.85-.67-8.66-.77-11.46-.65Z"/>
          <path class="cls-2" d="M463.03,93.6c-4.36-2.32-8.86-4.72-12.87-5.28-4.13-.57-7.93-.79-11.34-.65h0c-3.62.1-7.19-1.53-9.36-4.5-2.15-2.95-2.68-6.6-1.44-10.02l.12-.33c4.19-11.04-12.37-25.42-14.27-27.02-7.27-6.13-6.91-9.84-6.05-11.51,1.24-2.4,4.86-3.28,8.99-2.22,5.41,1.4,12,6.93,15,12.6,1.87,3.53,2.31,6.93,1.28,9.82-.84,2.33-.79,4.1.15,5.26,2.28,2.81,9.46,2.2,14.65,1.51,2.91-.39,7.38-1.84,12.57-3.53,12.7-4.13,28.54-9.27,32.99-2.2,1.42,2.26,1.63,4.29.6,6.05-4.39,7.56-30.61,6.6-30.92,6.45,6.33,3.31,21.19,11.95,22.55,20.73.43,2.78-.5,5.36-2.76,7.64-1.7,1.72-3.68,2.4-5.84,2.4-4.25,0-9.19-2.63-14.03-5.21ZM463.13,66.87c5.42.25,26.35-.04,29.78-5.93.77-1.33.58-2.86-.57-4.7-3.93-6.22-19.86-1.04-31.49,2.74-5.24,1.71-9.77,3.18-12.8,3.58-8.88,1.19-13.76.57-15.83-1.99-1.24-1.53-1.36-3.72-.37-6.51,1.15-3.21-.02-6.55-1.2-8.78-2.85-5.38-9.08-10.62-14.17-11.94-3.48-.91-6.57-.26-7.51,1.55-1.15,2.22,1,5.93,5.73,9.92,1.98,1.66,19.16,16.6,14.66,28.47l-.12.32c-1.09,3.01-.63,6.22,1.28,8.81,1.92,2.61,5.03,4.09,8.26,3.96,3.49-.14,7.37.08,11.57.66,4.23.59,8.85,3.04,13.3,5.42,7.18,3.83,13.97,7.45,18.33,3.04,1.99-2.01,2.77-4.14,2.4-6.53-1.27-8.19-15.72-16.56-21.87-19.77-.52-.27-.78-.85-.62-1.42.14-.54.63-.9,1.18-.9h.06Z"/>
        </g>
      </g>
    </g>
  </g>
</svg>