<?xml version="1.0" encoding="UTF-8"?>
<svg id="Layer_2" data-name="Layer 2" xmlns="http://www.w3.org/2000/svg" viewBox="0 0 11.25 13.13">
  <defs>
    <style>
      .cls-1 {
        fill: #93a6d5;
        stroke: #2b3088;
        stroke-miterlimit: 10;
        stroke-width: .28px;
      }
    </style>
  </defs>
  <g id="Layer_1-2" data-name="Layer 1">
    <path class="cls-1" d="M10.5,12.2c-2.55,1.88-4.01,0-5.19-1.4-2.01-2.39-4.28-1.68-4.56-2.5-.12-.34.48-.78,1.19-.91,1.05-.19,1.57.26,1.95.51.23.15.61.49.8.66.97.9,1.78,1.2,1.64.99-.07-.11.03-.63-1.28-1.81C2.31,5.28-1.07,1.18.58.26c.98-.54,1.25.86,1.88,2.06.19.36.73,1.32,1.09,1.82.61.86,1.5,2.15,2.54,2.91.42.3-.45-.41-.45-.41-.06-.32.72-.76,1.51-.43.61.25.86.12,1.16.02,1.27-.42,2.17.73,2.55,2.1.16.57.65,3.14-.34,3.87Z"/>
  </g>
</svg>