<?xml version="1.0" encoding="UTF-8"?>
<svg id="Layer_2" data-name="Layer 2" xmlns="http://www.w3.org/2000/svg" viewBox="0 0 18.24 18.61">
  <defs>
    <style>
      .cls-1 {
        fill: #93a6d5;
      }

      .cls-1, .cls-2, .cls-3, .cls-4 {
        stroke: #2b3088;
        stroke-miterlimit: 10;
        stroke-width: .28px;
      }

      .cls-2 {
        fill: #429d46;
      }

      .cls-3 {
        fill: #f16035;
      }

      .cls-4 {
        fill: #f68c34;
      }
    </style>
  </defs>
  <g id="Layer_1-2" data-name="Layer 1">
    <g>
      <path class="cls-1" d="M.51,9.72c1.1-2.36,2.85-1.55,4.77-4.95.41-.73.6-5.44,2.38-4.51s.94,5-2.26,6.27c-1.25.5,5.98,1.97,8.39,2.25,3.32.39,4.15,3.63-3.68,1.76,0,0-.9,4.49-3.63,3.63-2.4-.75-7.78-.58-5.97-4.46Z"/>
      <rect class="cls-4" x="5.37" y="2.08" width="10.33" height="17.34" rx="5.17" ry="5.17" transform="translate(10.25 -4.3) rotate(43.32)"/>
      <path class="cls-3" d="M12.09,10c1.71.73,1.41,2.14,1.41,2.14-2.43-1.24-3.36,1.7-1.17,1.77,0,0-2.98,2.36-4.09-.04-.21-.45-.78-.32-1.16-1.02-.83-1.54,1.37-4.57,2.78-4.68.96-.08,1.48.74,1.64,1.19.1.28.31.52.59.64Z"/>
      <path class="cls-2" d="M12.09,10s1.69-3.5,3.01-2.22c1.23,1.19-3.87,3.77-3.01,2.22Z"/>
    </g>
  </g>
</svg>