<?xml version="1.0" encoding="UTF-8"?>
<svg id="Layer_2" data-name="Layer 2" xmlns="http://www.w3.org/2000/svg" version="1.1" viewBox="0 0 13.1 21.3">
  <defs>
    <style>
      .cls-1 {
        fill: none;
      }

      .cls-1, .cls-2, .cls-3 {
        stroke: #2b3088;
        stroke-miterlimit: 10;
        stroke-width: .3px;
      }

      .cls-2 {
        fill: #f15a29;
      }

      .cls-3 {
        fill: #93a6d5;
      }

      .cls-4 {
        fill: #2b3088;
        stroke-width: 0px;
      }
    </style>
  </defs>
  <g id="Layer_1-2" data-name="Layer 1-2">
    <g>
      <path class="cls-4" d="M6.3.1h0c0,0,.2,0,.2.2v.3c0,0,0,.1-.2.1h0c0,0-.2,0-.2-.1v-.3c0,0,0-.2.2-.2Z"/>
      <path class="cls-2" d="M7.4,7.9c0,1.5-.1,2.8-.3,3.8h-1.5c-.2-.8-.3-1.8-.3-2.9,0-.3,0-.6,0-1,0-3,.5-7.3,1.1-7.3s1.1,4.3,1.1,7.3Z"/>
      <path class="cls-2" d="M7.1,11.7c-.2,1-.5,1.6-.8,1.6s-.6-.6-.8-1.6h1.5,0Z"/>
      <path class="cls-2" d="M4.4,12.1c-.1-.8,1-3.6.4-4.2s.3-1,.4-.2c0,.8-.4,3.7-.4,4.1s.7,0,.7-.1c0,.3.2.7.2.9,0,0-1.2.3-1.3-.5Z"/>
      <line class="cls-1" x1="5.2" y1="8.9" x2="7.3" y2="8.9"/>
      <path class="cls-1" d="M6.6,3c.2,1.6.3,3.5.3,5.1s0,2.3-.2,3.2"/>
      <path class="cls-3" d="M.5,18.5c-2.2-2.6,5.5-7.4,5.4-5.2-.1,1.7-4.8,2.1-2.7,3.2s9.2-1.5,7.4-2.1c-1.9-.6-4.3-2.3-3.2-2.7,1.6-.6,5.3,1.8,5.5,2.9.4,1.5-2.7,2.8-3.7,3.1-.4.1.8.5,0,1.8-1.1,1.9-6.4,2.5-8.6-1.1Z"/>
    </g>
  </g>
</svg>