<?xml version="1.0" encoding="UTF-8"?>
<svg id="Layer_2" data-name="Layer 2" xmlns="http://www.w3.org/2000/svg" version="1.1" viewBox="0 0 32.3 20.8">
  <defs>
    <style>
      .cls-1 {
        fill: #8ec73f;
      }

      .cls-1, .cls-2 {
        stroke: #2b3088;
        stroke-miterlimit: 10;
        stroke-width: .3px;
      }

      .cls-2 {
        fill: #93a6d5;
      }

      .cls-3 {
        fill: #2b3088;
        stroke-width: 0px;
      }
    </style>
  </defs>
  <g id="Layer_1-2" data-name="Layer 1-2">
    <g>
      <path class="cls-1" d="M16.2.4c0-.2.2-.2.4-.2h15.2c.2,0,.4.2.3.5-.9,3.2-3.6,12.6-4.1,14.2,0,.1-.2.2-.3.3l-18.4,1.6c0,0-.2,0-.2,0C5.5,13.9,2.2,11.8.3,10.7c-.3-.2-.2-.7.2-.7,3.4.4,10.3,1.3,11.9,1.4.2,0,.3,0,.4-.2L16.2.4Z"/>
      <path class="cls-2" d="M6.8,16.7c.9-1.6,0-3.4-1.8-3.9,0,0,.4-1.4,2.1-.9,1.9.5.7,4.5,2.6,4.4,3.2-.2,11.1-.9,10.7,1.4-.2,1.1-1.5.4-2.8,0-3.3-.7-4.4-.3-4.4-.3,0,0,.7,2.1-1.9,2.3-1.6.1-3.3,1.5-4.8.4-.5-.4-.8-1.4.3-3.5h0Z"/>
      <polygon class="cls-3" points="12.1 12.2 14.4 12.8 11.9 13 9.6 12.2 12.1 12.2"/>
      <polygon class="cls-3" points="14.4 13.1 16.6 13.7 13.7 13.9 12.2 13.3 14.4 13.1"/>
      <polygon class="cls-3" points="11.5 13.5 13.7 14.1 10.7 14.3 9.3 13.7 11.5 13.5"/>
      <polygon class="cls-3" points="16.9 14.1 18.7 14.5 16 14.9 14.6 14.3 16.9 14.1"/>
      <polygon class="cls-3" points="14 11.4 27 13.9 30.6 1.4 17 1.3 14 11.4"/>
    </g>
  </g>
</svg>