<?xml version="1.0" encoding="UTF-8"?>
<svg id="Layer_2" data-name="Layer 2" xmlns="http://www.w3.org/2000/svg" viewBox="0 0 689.77 202.91">
  <defs>
    <style>
      .cls-1 {
        fill: #f3d718;
      }

      .cls-1, .cls-2, .cls-3, .cls-4 {
        stroke-width: 0px;
      }

      .cls-5 {
        fill: #231f20;
        font-family: HalyardDisplay-Medium, 'Halyard Display';
        font-size: 28.1px;
        font-variation-settings: 'wght' 500;
        font-weight: 500;
      }

      .cls-2 {
        fill: #2b3088;
      }

      .cls-3 {
        fill: #93a6d5;
      }

      .cls-4 {
        fill: #f36f21;
      }
    </style>
  </defs>
  <g id="Layer_1-2" data-name="Layer 1">
    <g>
      <g>
        <path class="cls-1" d="M603.69,202.91c-23.49,0-46.92-11.45-60.55-30.68-27.68-40.02-50-46.76-95.55-28.95-61.69,24.14-89.27,3.07-118.48-19.24-19.37-14.8-39.4-30.1-71.69-34.85-2.51-.37-4.24-2.7-3.87-5.21.37-2.51,2.73-4.24,5.2-3.87,34.65,5.09,56.58,21.85,75.93,36.64,28.27,21.6,52.68,40.24,109.56,17.98,49.49-19.37,76.34-11.23,106.41,32.23,12.28,17.31,39.13,31.56,66.6,25.25,32.19-7.39,54.71-40.17,63.41-92.28.42-2.5,2.74-4.2,5.28-3.77,2.5.42,4.18,2.78,3.77,5.28-12.61,75.58-49.52,94.92-70.4,99.71-5.13,1.18-10.38,1.75-15.62,1.75Z"/>
        <g>
          <path class="cls-3" d="M250.98,92.96c7.28.3,12.65-6.79,10.17-13.64-.04-.11-.08-.22-.12-.33-3.75-9.87,8.21-22.48,14.46-27.75,11.33-9.55,5.29-14.58-2.36-12.6-7.65,1.98-18.87,13.06-15.83,21.57,3.04,8.51-5.36,8.98-15.5,7.63s-38.99-15.43-44.92-6.02c-7.54,11.96,24.66,11.86,29.79,11.63.62-.03.84.81.29,1.1-7.86,4.11-29.91,16.97-19.63,27.34,7.56,7.63,21.28-6.77,32.19-8.28,4.85-.67,8.66-.77,11.46-.65Z"/>
          <path class="cls-2" d="M212.71,104.75c-2.16,0-4.14-.68-5.84-2.4-2.27-2.29-3.2-4.86-2.76-7.64,1.36-8.78,16.22-17.42,22.55-20.73-.31.15-26.53,1.11-30.92-6.45-1.03-1.76-.82-3.79.6-6.05,4.45-7.07,20.29-1.93,32.99,2.2,5.18,1.68,9.66,3.14,12.57,3.53,5.18.69,12.37,1.29,14.65-1.51.94-1.16.99-2.92.15-5.26-1.03-2.9-.59-6.29,1.28-9.82,3-5.66,9.59-11.2,15-12.6,4.13-1.06,7.75-.18,8.99,2.22.86,1.67,1.22,5.38-6.05,11.51-1.9,1.6-18.46,15.98-14.27,27.02l.12.33c1.24,3.43.71,7.08-1.44,10.02-2.18,2.97-5.74,4.59-9.36,4.5h0c-3.4-.14-7.21.07-11.34.65-4.01.55-8.52,2.96-12.87,5.28-4.83,2.57-9.77,5.21-14.03,5.21ZM226.7,72.81c.55,0,1.04.36,1.18.9.16.56-.1,1.15-.62,1.42-6.15,3.21-20.6,11.58-21.87,19.77-.37,2.39.42,4.52,2.4,6.53,4.37,4.4,11.15.79,18.33-3.04,4.46-2.38,9.07-4.83,13.3-5.42,4.2-.58,8.09-.8,11.57-.66,3.23.13,6.34-1.35,8.26-3.96,1.9-2.59,2.36-5.8,1.28-8.81l-.12-.32c-4.5-11.87,12.68-26.81,14.66-28.47,4.73-3.99,6.88-7.7,5.73-9.92-.94-1.81-4.02-2.46-7.51-1.55-5.1,1.32-11.33,6.57-14.17,11.94-1.18,2.23-2.35,5.57-1.2,8.78,1,2.79.87,4.98-.37,6.51-2.07,2.56-6.95,3.18-15.83,1.99-3.03-.4-7.55-1.88-12.8-3.58-11.63-3.78-27.55-8.96-31.49-2.74-1.16,1.84-1.35,3.37-.57,4.7,3.43,5.9,24.36,6.18,29.78,5.93h.06Z"/>
        </g>
      </g>
      <rect class="cls-4" x="10.27" y="22.01" width="238.01" height="145.42" rx="15.67" ry="15.67" transform="translate(-18.16 31.89) rotate(-13.15)"/>
      <text class="cls-5" transform="translate(70.65 116.48) rotate(-12.99) scale(1.02 1)"><tspan x="0" y="0">Project 01</tspan></text>
    </g>
  </g>
</svg>